<?xml version="1.0" standalone="no"?>
<!DOCTYPE svg PUBLIC "-//W3C//DTD SVG 20010904//EN"
 "http://www.w3.org/TR/2001/REC-SVG-20010904/DTD/svg10.dtd">
<svg version="1.0" xmlns="http://www.w3.org/2000/svg"
 width="1024.000000pt" height="1024.000000pt" viewBox="0 0 1024.000000 1024.000000"
 preserveAspectRatio="xMidYMid meet">

<g transform="translate(0.000000,1024.000000) scale(0.100000,-0.100000)"
fill="#000000" stroke="none">
<path d="M0 5120 l0 -5120 5120 0 5120 0 0 5120 0 5120 -5120 0 -5120 0 0
-5120z m5545 4911 c44 -11 157 -25 250 -31 200 -14 352 -49 489 -112 63 -29
110 -43 160 -49 193 -21 251 -31 309 -54 170 -66 269 -110 366 -162 58 -31
140 -74 181 -94 41 -20 86 -46 99 -58 14 -12 48 -28 76 -37 58 -16 94 -38 82
-50 -4 -4 -58 18 -119 49 -109 54 -233 96 -246 82 -4 -4 7 -18 23 -32 17 -14
50 -43 75 -64 55 -48 88 -59 106 -35 12 16 13 16 24 -4 17 -33 0 -44 -54 -36
-36 6 -52 15 -74 42 -19 25 -42 39 -80 50 -33 10 -66 29 -87 50 -19 19 -40 34
-47 34 -8 0 -21 9 -31 20 -9 11 -24 20 -32 20 -9 0 -20 11 -25 24 -7 19 -23
29 -67 41 -32 10 -82 26 -111 36 -60 21 -240 27 -258 9 -7 -7 -31 -4 -75 9
-35 11 -109 32 -164 46 -55 14 -125 34 -155 45 -30 10 -111 24 -180 30 -116
11 -153 20 -137 36 3 3 44 -1 90 -10 47 -10 107 -16 133 -14 41 3 49 6 49 23
0 16 -16 26 -85 49 -80 27 -99 29 -324 37 -131 5 -264 14 -295 21 -72 15 -155
16 -261 0 -47 -7 -111 -14 -143 -16 -62 -3 -81 -16 -73 -51 5 -20 0 -20 -252
-21 -159 0 -297 -5 -362 -14 -58 -8 -123 -14 -145 -14 -22 -1 -61 -9 -87 -18
-27 -10 -69 -25 -94 -34 -28 -10 -67 -37 -96 -65 -28 -27 -62 -52 -77 -55 -57
-12 -157 -48 -237 -85 -84 -39 -117 -46 -142 -30 -11 7 -9 17 12 49 14 23 26
44 26 47 0 10 -28 4 -120 -25 -64 -21 -96 -28 -104 -20 -17 17 -48 10 -126
-28 -44 -22 -76 -44 -78 -54 -6 -31 37 -76 99 -106 34 -16 56 -33 50 -36 -6
-4 -44 -11 -86 -15 -84 -10 -164 -44 -304 -130 -46 -28 -95 -51 -109 -51 -13
0 -40 -13 -59 -30 -55 -48 -79 -40 -58 21 13 36 13 39 -4 39 -28 0 -89 -49
-179 -145 -87 -92 -118 -132 -109 -141 9 -10 85 35 137 81 114 101 134 81 24
-25 -62 -59 -102 -88 -166 -119 -46 -22 -99 -44 -117 -47 -23 -5 -40 -18 -58
-45 -28 -43 -48 -51 -38 -16 21 69 119 217 211 317 38 41 78 86 89 99 l20 24
-51 -26 c-27 -14 -57 -33 -64 -42 -8 -10 -47 -39 -86 -66 -40 -26 -82 -61 -94
-76 -12 -15 -50 -86 -84 -158 -35 -71 -75 -143 -90 -159 -25 -26 -31 -28 -81
-21 l-54 6 -25 -40 c-14 -21 -30 -42 -35 -46 -6 -3 -35 -49 -66 -101 -31 -52
-63 -98 -71 -101 -8 -3 -14 -12 -14 -21 0 -16 -60 -100 -117 -163 -21 -23 -59
-47 -101 -65 -79 -33 -104 -58 -96 -96 5 -23 2 -28 -13 -28 -31 0 -58 -39 -88
-127 -20 -58 -33 -83 -45 -83 -28 0 -79 -54 -97 -104 -10 -27 -28 -55 -41 -64
l-23 -15 7 58 c6 52 5 57 -11 54 -24 -5 -124 -150 -108 -156 9 -3 9 -10 1 -29
-9 -19 -9 -27 -1 -32 15 -9 -21 -101 -70 -181 -41 -66 -236 -474 -279 -581
-20 -52 -28 -84 -23 -105 8 -42 6 -79 -4 -83 -28 -10 -44 -37 -65 -114 -35
-126 -62 -164 -35 -48 18 75 26 140 19 140 -30 0 -60 -202 -60 -408 0 -61 -6
-102 -24 -155 -13 -40 -27 -96 -31 -124 -4 -29 -11 -53 -16 -53 -5 0 -9 -24
-10 -52 0 -46 -16 -115 -18 -80 -1 6 -5 12 -10 12 -6 0 -13 -21 -16 -47 -3
-27 -10 -64 -14 -84 -5 -22 -4 -44 2 -54 13 -23 58 -395 50 -409 -4 -6 -13
-67 -20 -136 -15 -145 -4 -253 29 -271 13 -7 18 -21 18 -51 0 -23 4 -69 9
-102 5 -34 14 -99 21 -146 6 -47 16 -112 22 -145 11 -63 28 -96 28 -56 0 12 4
20 9 16 6 -3 10 -40 10 -83 0 -52 11 -123 33 -217 29 -122 36 -140 53 -140 17
0 20 -7 21 -55 2 -81 66 -310 87 -310 5 0 7 10 4 22 -3 13 -8 39 -11 58 -5 33
-4 32 19 -15 14 -27 25 -68 25 -89 0 -27 16 -73 51 -144 28 -57 48 -106 46
-109 -3 -2 -11 6 -17 19 -24 45 -103 178 -107 178 -2 0 7 -21 20 -47 58 -117
77 -160 83 -190 4 -18 12 -33 18 -33 18 -1 67 -79 73 -117 3 -19 12 -37 19
-40 8 -3 40 -53 71 -112 65 -122 153 -264 160 -257 3 2 0 13 -6 24 -35 66 9
15 52 -60 37 -64 122 -155 152 -162 19 -5 34 -23 58 -74 24 -49 37 -66 50 -64
9 2 17 -2 17 -8 0 -6 39 -52 87 -102 85 -88 89 -96 30 -56 -52 37 -48 13 8
-50 39 -43 64 -62 80 -62 13 0 36 -11 50 -25 31 -32 31 -34 3 -28 -19 4 -15
-2 17 -32 22 -20 52 -42 67 -51 35 -18 51 -47 36 -62 -8 -8 -5 -14 13 -20 15
-6 25 -6 28 0 6 16 61 -44 61 -66 0 -12 18 -36 41 -55 35 -29 44 -32 60 -22
17 10 23 6 51 -34 18 -25 37 -45 43 -45 7 0 20 -9 30 -20 10 -11 22 -20 28
-20 5 0 36 -24 68 -54 32 -30 99 -79 148 -110 94 -58 343 -186 362 -186 6 0
24 -10 39 -23 15 -13 85 -50 156 -81 76 -34 140 -70 156 -87 15 -16 32 -29 39
-29 7 0 20 -6 28 -14 21 -18 230 -85 289 -92 55 -7 147 -45 132 -54 -6 -4 -33
-3 -60 0 -28 4 -50 3 -50 0 0 -4 43 -21 96 -38 71 -23 101 -29 114 -22 26 14
51 12 64 -3 18 -22 106 -51 118 -39 10 10 60 -4 143 -38 17 -7 39 -13 50 -14
13 -1 19 -7 17 -18 -3 -21 16 -34 30 -20 16 16 68 -6 68 -30 0 -10 4 -17 10
-13 5 3 7 12 3 20 -8 23 76 20 93 -2 18 -26 161 -26 175 0 12 21 57 23 65 3 4
-12 26 -15 92 -14 49 0 100 -5 117 -12 17 -7 58 -16 92 -20 34 -4 79 -16 100
-27 29 -16 51 -19 96 -15 31 2 57 8 57 12 0 21 76 30 231 28 249 -4 476 10
604 38 60 13 119 24 130 23 30 0 -170 -68 -242 -81 -66 -12 -78 -22 -40 -32
66 -17 90 -10 268 85 68 37 224 59 413 59 l174 0 92 46 c50 25 90 48 88 50 -5
4 -121 -23 -176 -41 -23 -8 -66 -15 -95 -14 l-52 1 65 13 c36 7 82 23 102 35
21 12 70 30 110 40 40 10 131 41 201 69 71 28 133 49 138 45 33 -20 69 -21
106 -4 21 11 51 24 68 30 22 8 26 13 16 20 -10 6 -6 12 18 25 45 23 105 79
156 145 37 48 55 62 120 90 51 22 74 37 71 47 -3 7 -1 13 3 13 5 0 11 -7 15
-15 6 -18 41 -19 85 -4 30 11 43 29 19 29 -6 0 -3 9 7 20 10 12 24 19 31 16 7
-3 15 -2 19 2 4 4 10 7 13 7 18 0 136 102 217 187 81 85 95 96 143 107 46 12
58 20 98 72 25 33 76 84 114 115 117 95 489 540 649 779 91 136 191 300 191
314 0 4 17 15 38 23 31 13 43 27 77 93 36 69 38 78 24 88 -15 9 -13 16 22 62
43 58 110 197 176 365 24 63 51 122 59 132 12 13 13 20 4 35 -10 15 -6 34 23
104 121 293 221 686 218 854 -1 54 6 136 18 205 33 192 43 293 32 322 -9 24
-7 29 16 40 27 13 63 65 104 148 15 30 23 39 26 29 2 -10 13 -19 23 -22 17 -4
19 -18 22 -163 3 -159 -7 -272 -35 -392 -15 -61 -12 -73 11 -50 62 62 -141
-807 -282 -1208 -38 -107 -92 -226 -211 -463 -82 -164 -109 -229 -115 -274
-10 -65 -27 -90 -82 -118 -47 -24 -72 -61 -64 -92 14 -55 -277 -431 -550 -713
-44 -44 -76 -76 -71 -70 19 26 4 27 -23 1 -16 -15 -27 -31 -25 -35 7 -11 -34
-45 -53 -45 -9 0 -26 -15 -37 -34 -58 -98 -178 -196 -256 -209 -33 -6 -44 -13
-49 -29 -7 -32 -318 -280 -408 -327 -17 -9 -53 -16 -81 -16 -52 0 -65 -11 -49
-44 6 -10 6 -22 1 -26 -14 -14 -266 -156 -406 -229 -164 -87 -319 -148 -605
-241 -123 -40 -231 -80 -240 -90 -31 -32 -242 -77 -242 -51 0 19 -33 12 -134
-29 -101 -42 -121 -47 -111 -30 9 15 -32 12 -63 -4 -41 -20 -76 -30 -68 -18 8
14 -34 20 -94 14 -52 -5 -62 -14 -34 -30 32 -18 -87 -22 -461 -18 -357 5 -590
16 -743 36 -40 6 -91 10 -113 10 -22 0 -52 6 -68 14 -15 8 -66 21 -113 30 -95
16 -191 53 -185 70 2 6 17 14 33 17 l29 6 -40 11 c-64 18 -123 25 -142 17 -14
-6 -10 -10 22 -19 23 -7 40 -18 40 -26 0 -13 -24 -14 -160 -11 -196 4 -215 10
-550 160 -132 59 -285 127 -339 151 -124 55 -322 163 -417 227 -39 26 -101 67
-138 91 -119 76 -151 102 -161 126 -6 16 -21 28 -44 35 -54 14 -174 97 -241
166 -35 36 -87 76 -125 96 -73 38 -210 162 -210 190 0 11 -23 34 -61 60 -114
77 -259 230 -259 272 0 17 -60 96 -110 147 -57 56 -97 112 -123 171 -13 30
-59 95 -101 144 -43 50 -91 109 -107 132 -60 86 -181 353 -181 401 0 17 -6 22
-27 22 -25 0 -30 9 -86 148 -32 81 -82 199 -110 262 -37 79 -55 134 -60 178
-6 53 -11 66 -34 80 -14 9 -29 21 -33 27 -4 5 -8 78 -8 160 0 86 -4 144 -9
137 -6 -11 -10 -10 -15 4 -12 32 -36 239 -36 318 0 62 -3 77 -14 73 -29 -11
-49 145 -61 465 -3 89 -12 174 -19 195 -16 45 -13 342 5 553 9 107 18 150 40
207 32 78 29 115 -9 127 -14 5 -22 19 -25 44 -3 20 -8 49 -12 63 -5 18 0 35
17 60 14 22 30 71 41 129 10 52 27 109 37 125 10 17 22 48 25 70 10 51 22 75
40 75 22 0 27 17 16 57 -8 30 -7 42 5 61 8 13 31 66 50 118 80 223 265 612
358 757 31 48 69 112 83 142 20 41 31 54 44 50 12 -4 19 5 29 42 15 50 127
227 163 255 16 12 25 14 34 6 10 -8 13 -5 13 10 0 45 76 186 160 297 25 33 52
73 60 89 15 30 83 90 203 181 62 47 66 53 67 90 1 56 13 74 40 57 26 -16 37
-9 54 32 17 41 107 121 265 235 67 48 154 116 194 150 175 149 524 360 708
427 78 28 109 50 122 85 10 25 26 35 107 66 52 20 145 58 205 85 152 68 254
107 440 166 166 52 238 66 550 102 231 26 376 46 445 61 31 6 97 9 150 7 52
-3 118 -2 145 3 28 4 156 6 285 4 186 -4 252 -9 315 -24z m-326 -157 c96 -10
52 -24 -76 -24 -103 0 -125 5 -106 23 8 9 102 9 182 1z m541 -54 c0 -12 -24
-12 -60 0 -21 7 -19 8 18 9 23 1 42 -3 42 -9z m1068 -228 c3 -10 -4 -13 -24
-10 -15 2 -29 9 -32 16 -3 10 4 13 24 10 15 -2 29 -9 32 -16z m-3394 -64 c15
-24 -11 -50 -42 -42 -24 7 -29 33 -10 52 16 16 38 12 52 -10z m3586 -24 c0 -2
-7 -4 -15 -4 -8 0 -15 4 -15 10 0 5 7 7 15 4 8 -4 15 -8 15 -10z m-3743 -19
c-4 -8 -14 -15 -23 -15 -16 0 -16 2 1 20 20 22 31 20 22 -5z m3818 -15 c3 -5
-1 -10 -9 -10 -9 0 -16 5 -16 10 0 6 4 10 9 10 6 0 13 -4 16 -10z m-1211 -65
c325 -49 569 -230 640 -476 42 -144 40 -369 -5 -530 -70 -254 -261 -416 -539
-460 -114 -18 -304 -6 -425 25 -226 59 -398 182 -475 339 -62 126 -75 189 -75
357 0 175 18 266 77 390 72 150 208 264 391 325 138 46 251 54 411 30z m-1494
-80 c169 -52 279 -153 340 -313 l18 -47 -206 -53 c-114 -29 -208 -48 -210 -43
-1 4 -16 28 -31 53 -75 118 -280 124 -431 13 -73 -54 -105 -125 -104 -230 2
-162 81 -384 162 -457 53 -48 100 -62 181 -55 166 14 315 117 336 232 11 58 1
59 -159 15 -81 -23 -150 -39 -153 -36 -11 10 -63 260 -55 266 16 15 698 187
706 179 8 -8 166 -720 166 -747 0 -21 -40 -36 -139 -51 -81 -13 -102 -4 -133
57 l-26 52 -37 -50 c-109 -149 -412 -280 -644 -280 -158 1 -301 60 -411 170
-174 174 -274 563 -210 814 25 99 67 171 148 258 138 146 311 230 555 269 79
12 274 3 337 -16z m3485 -109 c39 -28 93 -70 120 -94 28 -25 88 -71 135 -103
47 -32 98 -70 115 -83 l29 -25 -23 -32 c-23 -31 -23 -33 -6 -46 18 -12 17 -13
-8 -13 -22 0 -90 49 -69 50 4 0 -1 5 -11 11 -18 10 -18 12 5 36 l23 25 -35 27
c-19 14 -55 44 -80 66 -46 41 -134 105 -144 105 -3 0 -6 -8 -6 -17 -1 -10 -7
-36 -15 -58 -10 -28 -11 -43 -3 -52 9 -11 7 -12 -8 -6 -10 3 -47 37 -81 73
-55 59 -68 68 -118 79 -41 9 -67 23 -95 50 -22 21 -40 45 -40 54 0 17 15 24
22 10 2 -5 18 -20 36 -35 26 -21 44 -28 78 -28 53 0 120 -31 129 -60 8 -24 30
-26 39 -4 11 28 7 33 -51 70 -62 38 -83 59 -83 82 0 16 40 -6 145 -82z m-631
-109 c84 -39 132 -80 152 -133 34 -90 -3 -172 -222 -479 -67 -94 -151 -216
-188 -272 -75 -118 -77 -119 -180 -77 -107 43 -105 34 -48 236 28 95 78 274
112 398 68 248 97 313 150 342 49 27 147 20 224 -15z m826 -172 c20 -24 6 -28
-15 -5 -10 11 -13 20 -8 20 6 0 16 -7 23 -15z m281 -86 c64 -50 47 -77 -26
-42 -23 11 -34 22 -30 31 3 7 5 20 5 28 0 20 7 18 51 -17z m167 -169 c34 -21
40 -30 20 -30 -16 0 -77 49 -63 50 6 0 25 -9 43 -20z m66 -15 c15 -19 23 -35
18 -35 -10 0 -62 53 -62 63 0 17 20 4 44 -28z m-6744 -131 c0 -20 -65 -110
-85 -118 -36 -13 0 88 43 122 22 17 42 15 42 -4z m6936 -37 c23 -43 10 -43
-17 0 -32 52 -35 60 -15 44 10 -8 24 -28 32 -44z m-55 -44 c18 -32 59 -82 91
-111 32 -30 58 -59 58 -65 0 -21 -130 117 -161 169 -16 28 -29 54 -29 58 0 15
11 2 41 -51z m67 -212 c18 -22 29 -41 25 -41 -19 0 -123 125 -123 147 1 9 43
-38 98 -106z m-2001 -157 c106 -51 149 -161 102 -264 -36 -79 -96 -125 -182
-136 -89 -13 -203 68 -228 160 -22 80 11 182 73 230 68 51 142 54 235 10z
m2319 -109 c-2 -7 13 -30 35 -51 21 -21 39 -43 39 -48 0 -6 -20 9 -44 33 -27
27 -43 52 -43 67 0 13 4 21 9 18 5 -3 7 -12 4 -19z m-7840 -66 l-15 -34 6 40
c7 47 16 67 21 44 2 -9 -4 -32 -12 -50z m7920 10 c15 -26 -6 -15 -37 18 l-34
36 32 -22 c18 -12 35 -27 39 -32z m44 -122 c23 -47 24 -50 10 -42 -5 3 -17 23
-26 43 -10 20 -20 41 -22 46 -3 5 0 6 7 2 6 -4 20 -26 31 -49z m-81 -11 c6
-24 14 -51 18 -61 4 -13 3 -16 -6 -11 -14 9 -25 35 -36 84 -10 49 11 39 24
-12z m161 5 c0 -11 3 -28 6 -38 5 -12 4 -15 -3 -8 -15 15 -25 65 -13 65 5 0
10 -9 10 -19z m-26 -27 c10 -25 -1 -29 -14 -5 -6 12 -7 21 -1 21 5 0 12 -7 15
-16z m-7019 -54 c12 -19 -28 -70 -54 -70 -24 0 -61 -25 -61 -42 0 -14 27 -9
78 17 67 33 105 33 132 -2 56 -72 -39 -193 -151 -193 -26 0 -50 4 -53 9 -11
17 51 71 81 71 17 0 38 9 48 20 29 32 -5 35 -64 6 -75 -38 -111 -34 -137 16
-9 17 -13 41 -10 54 9 33 65 94 101 110 36 16 81 18 90 4z m7044 -42 c9 -14 8
-18 -3 -18 -8 0 -16 6 -19 14 -3 7 -19 16 -36 19 -17 4 -31 10 -31 15 0 16 77
-10 89 -30z m-7315 -107 c29 -58 37 -85 32 -105 -3 -14 -10 -26 -15 -26 -5 0
-34 29 -65 64 l-57 65 28 40 c15 22 30 40 33 41 4 0 23 -35 44 -79z m5487 -85
c-60 -119 -120 -192 -208 -250 -37 -25 -82 -68 -108 -102 -48 -64 -58 -89 -22
-58 26 24 73 54 84 54 4 0 -28 -36 -72 -80 -44 -44 -84 -80 -90 -80 -33 0
-105 -174 -105 -254 0 -65 17 -79 25 -20 18 134 43 179 166 304 77 79 151 123
197 118 41 -5 37 -25 -13 -60 -37 -26 -48 -42 -60 -82 -8 -27 -15 -61 -15 -75
0 -23 4 -20 28 21 15 26 45 66 68 90 22 24 61 71 87 105 28 36 59 65 77 71 39
14 49 -3 12 -22 -16 -8 -42 -32 -57 -53 -16 -21 -45 -56 -65 -78 -19 -22 -57
-74 -83 -117 l-48 -76 14 -68 13 -67 29 66 c16 37 35 67 42 67 21 0 15 -24
-20 -92 -36 -66 -49 -122 -40 -158 5 -17 14 -2 40 66 43 115 76 239 68 262 -7
24 30 72 56 72 14 0 19 -8 20 -32 2 -29 2 -30 6 -7 4 27 38 67 49 56 3 -3 -2
-43 -10 -89 -9 -47 -16 -94 -16 -106 0 -13 33 -58 82 -112 159 -176 258 -328
291 -450 9 -30 21 -94 27 -141 10 -72 9 -96 -3 -145 -25 -98 -49 -142 -151
-282 -27 -37 -61 -89 -76 -117 -37 -69 -302 -505 -349 -573 -21 -32 -101 -154
-177 -272 -76 -118 -149 -226 -162 -240 l-23 -25 12 24 c6 14 42 70 79 125 37
56 102 157 146 226 43 69 92 143 110 165 31 40 134 218 134 233 0 4 29 52 65
107 36 54 65 101 65 103 0 14 -31 -25 -87 -111 -36 -56 -80 -118 -97 -138 -17
-20 -51 -71 -76 -113 -55 -95 -76 -123 -85 -114 -4 3 -1 16 5 28 30 56 -78
-53 -159 -160 -48 -63 -116 -152 -152 -198 -85 -110 -235 -327 -261 -377 -11
-22 -42 -59 -68 -82 -44 -39 -164 -197 -255 -336 -21 -32 -66 -87 -99 -123
-37 -38 -80 -97 -106 -146 -60 -113 -126 -216 -165 -258 -36 -39 -116 -152
-111 -157 2 -2 23 1 47 6 24 6 63 11 85 11 49 0 60 12 143 155 29 50 151 221
270 380 120 160 280 376 356 480 76 105 140 192 142 194 2 2 5 2 8 -1 7 -7
-118 -188 -210 -303 -131 -163 -443 -606 -557 -790 -27 -43 -63 -97 -80 -118
-29 -37 -33 -38 -72 -33 -26 4 -61 0 -96 -10 -66 -19 -101 -54 -226 -220 -109
-145 -140 -167 -229 -159 -96 9 -156 25 -219 58 -93 49 -142 126 -210 332 -15
44 -38 109 -52 143 -14 35 -23 66 -20 69 8 8 59 -102 121 -261 61 -157 93
-206 166 -252 45 -28 138 -59 207 -69 66 -9 106 14 165 94 23 31 70 92 106
136 91 113 90 112 50 87 -37 -23 -119 -31 -119 -12 0 6 15 10 34 10 55 0 89
18 136 72 38 44 40 48 14 29 -52 -38 -235 -64 -289 -41 -14 6 2 9 50 9 89 1
213 25 233 44 13 14 11 15 -24 7 -54 -13 -204 -13 -204 0 0 6 31 10 74 10 40
0 100 3 133 6 55 6 62 9 75 38 l15 31 -76 -7 c-42 -3 -107 -7 -146 -7 -94 0
-56 14 60 22 157 11 210 36 250 117 10 19 25 43 34 54 15 18 15 18 -8 11 -90
-28 -160 -45 -185 -45 -49 0 -17 20 57 35 97 20 197 68 197 95 0 4 -32 1 -72
-7 -39 -7 -73 -11 -76 -8 -3 2 1 7 9 9 8 2 36 11 63 20 27 9 58 16 69 16 24 0
77 56 77 81 0 18 -1 18 -32 0 -37 -21 -169 -64 -175 -57 -3 3 27 14 65 25 88
27 156 64 183 102 11 16 17 29 13 29 -4 0 5 13 20 29 l28 30 -62 -20 c-38 -12
-68 -16 -77 -11 -11 6 11 17 73 37 66 20 96 36 116 58 15 17 26 32 24 34 -1 2
-45 -13 -97 -32 -52 -19 -101 -35 -109 -35 -31 0 47 40 129 66 57 18 97 37
118 57 18 17 31 32 30 33 -2 2 -46 -10 -100 -25 -53 -16 -114 -32 -134 -36
-72 -13 -25 6 88 37 139 37 158 46 199 98 l32 41 -33 -15 c-47 -20 -210 -68
-215 -63 -5 5 89 47 104 47 6 0 40 9 76 20 78 24 120 58 184 149 25 36 54 71
63 78 8 6 28 28 43 48 l28 36 -37 -15 c-21 -9 -61 -16 -89 -15 l-51 0 81 23
c74 20 164 72 164 95 0 4 -24 0 -52 -10 -29 -10 -66 -18 -83 -18 -24 0 -19 3
25 18 72 23 150 64 174 90 l19 21 -61 0 c-78 0 -90 16 -14 19 31 1 59 6 60 11
2 6 11 10 20 10 15 0 15 -2 2 -11 -13 -9 -13 -10 0 -7 8 3 43 45 76 95 l62 90
-47 -3 -46 -3 54 24 c60 28 65 29 56 15 -3 -5 -4 -10 -2 -10 9 0 90 101 85
105 -2 3 -29 -5 -59 -16 -30 -12 -67 -24 -84 -26 -59 -10 -4 26 67 43 37 9 75
25 85 35 10 10 36 37 58 59 l40 41 -51 -27 c-34 -19 -56 -25 -70 -20 -15 6 -7
12 44 31 57 21 100 53 192 143 13 13 13 14 0 7 -8 -4 -22 -14 -31 -22 -14 -12
-211 -83 -231 -83 -4 0 -8 4 -8 8 0 12 47 32 75 32 36 0 117 33 158 64 20 15
40 25 46 22 9 -6 51 43 51 59 0 4 -13 4 -30 0 -47 -10 -36 1 39 40 39 21 77
47 85 60 16 24 15 24 -22 18 -20 -3 -71 -21 -114 -40 -42 -19 -82 -33 -90 -31
-17 6 50 40 133 68 35 12 78 31 96 41 34 21 137 129 130 136 -3 2 -50 -19
-106 -48 -56 -29 -104 -49 -108 -45 -11 11 19 32 81 56 83 33 242 157 224 175
-3 3 -47 -18 -98 -46 -117 -65 -164 -85 -158 -68 5 14 9 17 89 54 63 29 138
81 103 71 -34 -10 -187 -36 -213 -36 -14 0 -39 16 -62 39 l-39 39 2 128 c3
125 2 131 -24 174 -15 25 -43 76 -63 114 l-37 69 -23 -29 c-23 -28 -24 -28
-38 -10 -10 14 -16 16 -21 7 -13 -21 0 -37 56 -68 29 -17 59 -38 66 -46 17
-20 53 -119 47 -126 -3 -2 -36 27 -73 66 -42 45 -87 81 -122 98 -61 30 -139
91 -185 145 -45 54 -238 247 -229 230 16 -32 82 -109 169 -200 51 -52 111
-120 134 -151 37 -51 46 -57 76 -56 44 1 73 -20 158 -118 61 -70 80 -105 59
-105 -4 0 -44 41 -87 90 -73 83 -115 113 -133 96 -3 -4 -2 -13 3 -20 6 -7 23
-33 39 -57 15 -24 50 -66 76 -94 63 -65 131 -156 124 -167 -10 -16 -32 -7 -78
33 -50 44 -192 227 -207 266 -16 42 -70 115 -139 188 -67 70 -167 197 -230
289 -33 50 -31 65 11 66 24 0 95 -51 124 -90 18 -24 25 -29 25 -16 0 10 -27
53 -59 97 -74 97 -124 186 -147 262 -15 50 -16 66 -6 115 17 79 38 97 145 118
l88 18 23 -28 23 -29 23 23 23 23 -24 18 c-29 22 -72 23 -161 5 -78 -17 -113
-34 -157 -75 -31 -29 -33 -34 -26 -78 7 -47 67 -206 88 -231 17 -21 -2 -27
-23 -6 -29 29 -90 152 -90 182 0 52 -14 54 -57 9 -59 -60 -118 -158 -215 -352
-47 -93 -132 -245 -189 -338 -57 -92 -123 -200 -147 -240 -24 -39 -73 -121
-109 -182 -36 -60 -86 -148 -111 -195 -120 -229 -154 -291 -158 -287 -2 2 17
55 44 118 50 119 149 295 284 509 44 69 103 163 132 210 29 47 80 128 113 180
32 52 80 143 106 201 88 198 221 417 317 520 38 40 241 149 279 149 29 0 71
-22 100 -54 14 -14 28 -26 33 -26 5 0 23 30 40 68 16 37 65 128 107 202 67
118 76 131 79 105 2 -19 -11 -59 -36 -110 -21 -44 -47 -105 -57 -135 -17 -53
-32 -73 -46 -64 -4 2 -22 -22 -39 -53 -37 -64 -123 -152 -187 -190 -45 -26
-48 -43 -9 -43 38 0 186 136 216 198 14 29 28 52 31 52 3 0 10 -9 15 -20 8
-18 13 -15 51 34 23 30 74 78 115 108 40 30 92 79 115 109 41 53 103 172 103
197 0 7 10 16 23 21 38 14 33 -16 -22 -123z m-6451 118 c0 -16 -69 -113 -133
-188 -19 -21 -19 -21 -13 14 4 19 14 53 23 76 17 41 17 41 34 20 17 -21 18
-21 25 -1 20 53 64 107 64 79z m773 -186 c29 -21 31 -21 60 -4 28 16 31 16 49
-1 19 -17 19 -18 -2 -35 l-22 -18 33 -27 c61 -53 69 -56 94 -45 19 9 27 7 45
-13 22 -23 22 -25 6 -49 -9 -14 -30 -33 -47 -41 -28 -15 -33 -15 -65 2 -19 10
-59 36 -90 58 l-56 39 -18 -24 -18 -24 -24 19 c-13 11 -24 21 -26 22 -2 0 4
14 14 29 18 26 18 27 -4 42 -12 8 -22 18 -22 22 0 10 49 70 57 70 3 0 19 -10
36 -22z m5717 -29 c0 -11 -4 -18 -9 -14 -11 6 -55 -48 -70 -88 -6 -15 -31 -42
-57 -60 -25 -17 -55 -40 -67 -49 -11 -10 -25 -18 -31 -18 -6 0 21 31 60 68 39
37 81 85 94 107 44 75 80 99 80 54z m2000 -99 c17 -33 28 -60 26 -60 -5 0 -66
107 -66 115 0 16 13 -2 40 -55z m53 5 c19 -40 22 -65 8 -65 -9 0 -20 25 -27
55 -1 6 -5 18 -9 28 -13 33 11 17 28 -18z m-7775 -125 c17 -11 32 -24 32 -30
0 -15 -38 -88 -63 -122 -14 -19 -18 -31 -11 -38 15 -15 64 26 64 53 1 27 17
50 48 66 21 11 22 11 22 -40 0 -68 -33 -126 -90 -158 -38 -21 -46 -22 -81 -12
-81 24 -139 110 -125 185 8 39 48 93 80 106 37 15 90 11 124 -10z m7831 -65
c18 -38 25 -63 17 -55 -9 9 -27 44 -41 80 -32 82 -16 66 24 -25z m58 -117 c-3
-8 -6 -5 -6 6 -1 11 2 17 5 13 3 -3 4 -12 1 -19z m-976 -38 c5 0 27 9 49 20
l39 20 16 -29 c20 -41 20 -42 -25 -75 -39 -29 -40 -30 -24 -55 16 -23 15 -25
-2 -38 -27 -19 -43 -16 -56 12 -14 31 -22 31 -73 2 -39 -23 -44 -35 -30 -69 5
-13 0 -21 -19 -29 -22 -10 -29 -9 -46 6 -11 10 -25 36 -32 57 -10 34 -9 42 8
66 17 23 78 62 118 75 8 3 8 10 0 28 -10 21 -8 26 15 41 25 17 26 17 39 -7 7
-14 17 -25 23 -25z m-7233 2 c31 -21 101 -65 155 -97 54 -32 100 -62 103 -66
2 -5 -5 -27 -16 -49 l-21 -40 -32 16 c-28 15 -287 172 -295 179 -3 3 40 95 46
95 1 0 29 -17 60 -38z m2802 -12 c141 -18 265 -56 405 -124 206 -101 364 -250
456 -429 44 -85 50 -105 47 -146 -3 -44 0 -52 35 -90 35 -39 38 -47 36 -94 -2
-28 1 -52 6 -53 6 -1 36 -5 68 -9 70 -8 97 -30 97 -78 0 -38 -20 -61 -68 -78
-24 -8 -34 -20 -47 -57 -18 -53 -30 -71 -63 -94 -24 -16 -24 -16 -4 -27 34
-18 45 -71 26 -126 l-16 -48 35 -31 c42 -37 57 -64 57 -105 0 -25 5 -32 28
-37 15 -3 34 -8 42 -10 36 -12 168 -34 202 -34 20 0 40 5 43 11 10 15 34 -21
35 -52 0 -15 -7 -43 -16 -64 -14 -34 -14 -38 3 -51 39 -29 219 -13 483 42 l76
16 2 140 3 140 -38 -6 c-21 -4 -63 -14 -94 -23 -54 -14 -57 -17 -63 -51 -3
-21 -6 -61 -6 -90 0 -55 -18 -142 -29 -142 -3 0 -3 37 1 83 3 45 7 103 7 128
l1 46 -57 -13 c-32 -8 -69 -14 -83 -14 -44 -1 -48 -10 -54 -125 -5 -105 -17
-140 -31 -95 -6 20 -2 93 11 183 l6 37 -71 0 c-93 0 -92 18 2 22 l72 3 6 60
c3 33 13 100 22 149 12 64 14 92 6 96 -7 5 -5 9 5 13 9 4 16 17 16 29 0 13 5
30 10 38 7 11 10 2 10 -32 0 -39 3 -48 18 -48 9 1 91 23 182 49 l165 48 6 41
c9 72 24 65 19 -9 l-1 -26 91 23 c50 12 94 25 98 29 7 6 10 225 4 225 -1 0
-41 -10 -87 -21 -55 -14 -85 -26 -85 -35 0 -17 -27 -19 -32 -3 -5 14 -163 -16
-196 -38 -13 -8 -25 -13 -27 -11 -6 6 12 178 19 185 3 3 6 -29 6 -71 0 -76 1
-78 23 -72 12 4 49 13 82 22 190 47 315 89 310 103 -3 8 -8 47 -12 88 -5 61
-9 73 -22 69 -31 -10 -154 -27 -158 -22 -3 2 8 11 25 20 16 8 32 13 35 10 3
-3 31 0 62 7 l58 13 -7 60 c-7 79 -24 237 -32 301 -3 27 -3 47 1 44 7 -8 55
-303 55 -341 0 -15 5 -30 10 -33 6 -4 50 5 100 19 49 14 95 26 102 26 27 -1
-27 -30 -101 -55 -110 -37 -106 -32 -106 -124 0 -44 3 -82 7 -86 4 -4 52 3
107 15 l99 23 -4 36 -4 36 12 -32 c12 -36 15 -37 73 -23 59 13 55 3 -8 -25
-32 -13 -57 -30 -57 -37 0 -10 -3 -9 -9 1 -7 11 -25 10 -107 -10 l-99 -24 -3
-117 c-1 -65 -1 -118 2 -118 4 0 91 21 166 41 33 8 35 11 37 55 3 68 23 82 23
16 0 -29 2 -52 4 -52 2 0 62 17 135 39 72 21 131 36 131 32 0 -3 -61 -28 -135
-55 l-135 -49 -1 -56 c-2 -94 -17 -118 -18 -28 -1 42 -3 77 -5 77 -2 0 -47
-11 -100 -25 -53 -14 -98 -25 -100 -25 -2 0 -4 -61 -5 -135 l-2 -135 36 0 c41
0 39 -15 -4 -25 -28 -6 -29 -9 -36 -81 -9 -102 -35 -98 -35 6 l0 47 -82 -19
c-45 -10 -88 -24 -95 -30 -7 -6 -13 -27 -13 -48 0 -21 -7 -56 -14 -78 -9 -25
-11 -44 -5 -47 5 -4 9 -28 9 -54 l0 -49 102 28 c96 25 103 29 116 60 10 24 16
30 24 22 8 -8 6 -21 -8 -48 -10 -20 -23 -37 -29 -39 -203 -58 -205 -59 -205
-82 0 -12 -4 -25 -10 -28 -6 -3 -10 5 -10 19 0 22 -3 25 -27 20 -16 -3 -62
-11 -103 -17 -66 -11 -75 -15 -81 -37 -8 -28 -12 -190 -4 -190 2 0 48 16 101
35 108 39 104 38 104 26 0 -7 -130 -60 -187 -76 -22 -6 -23 -10 -23 -131 0
-68 3 -124 8 -124 4 0 22 4 40 9 43 13 42 -4 -4 -31 -19 -11 -41 -33 -47 -47
-11 -26 -11 -26 -15 -3 -2 17 -8 21 -21 17 -10 -3 -53 -12 -96 -20 -43 -9 -81
-17 -83 -20 -3 -2 1 -55 8 -116 l13 -111 48 6 c64 9 63 -8 -1 -25 -49 -13 -50
-13 -50 -51 0 -24 -4 -37 -10 -33 -5 3 -10 22 -10 41 0 29 -3 34 -17 30 -10
-3 -56 -10 -103 -17 -47 -6 -89 -15 -93 -19 -9 -8 12 -230 22 -230 3 0 35 5
70 10 74 10 108 1 65 -18 -14 -7 -53 -15 -85 -19 -33 -3 -62 -9 -65 -14 -2 -4
0 -26 5 -48 5 -23 5 -41 0 -41 -8 0 -14 19 -21 65 -2 15 -11 20 -31 19 -15 0
-59 -1 -98 -2 l-71 -2 7 -87 c4 -49 4 -85 1 -82 -6 5 -20 57 -40 142 l-6 27
-138 0 c-75 0 -179 6 -230 13 -91 14 -130 27 -78 27 14 0 29 7 32 15 4 8 10
13 15 10 4 -3 6 -12 2 -20 -4 -13 10 -15 85 -15 l90 0 7 151 c6 110 10 147 18
134 6 -11 8 -70 4 -152 l-5 -133 51 -2 c49 -1 150 2 154 6 0 0 -6 29 -15 63
-9 34 -13 65 -9 69 12 12 17 0 31 -67 11 -55 16 -64 34 -63 12 0 55 1 95 2 39
1 77 6 83 10 8 5 8 40 1 126 l-10 118 -60 -6 c-33 -3 -79 -6 -103 -6 -37 0
-44 -3 -52 -27 l-10 -28 -1 28 -1 27 -82 1 c-91 1 -67 16 29 18 52 1 52 1 62
39 5 20 11 50 13 65 6 51 23 23 22 -37 l-1 -59 66 7 c36 3 78 6 94 6 l27 0 0
90 c0 50 4 90 9 90 13 0 20 -81 11 -130 -4 -25 -7 -46 -5 -48 2 -2 52 3 112
10 l108 13 -1 45 c-1 25 -5 76 -9 114 l-8 69 -86 -7 c-71 -5 -89 -10 -103 -27
-15 -17 -18 -18 -18 -5 0 12 -10 16 -46 16 -41 0 -53 -5 -90 -40 -46 -43 -251
-146 -464 -235 l-125 -52 -38 -74 c-20 -41 -44 -108 -53 -149 -14 -68 -14 -80
1 -140 16 -65 77 -195 141 -301 45 -74 45 -107 1 -48 -79 105 -161 275 -174
359 -12 77 -1 134 46 240 23 51 41 94 41 95 0 2 -64 -18 -142 -45 -282 -95
-598 -171 -858 -206 -174 -24 -443 -25 -530 -1 -80 22 -154 69 -187 119 -23
34 -30 38 -68 38 -35 0 -51 7 -85 35 -23 19 -50 35 -60 35 -9 0 -34 -13 -55
-30 -51 -41 -85 -39 -124 5 -23 27 -31 45 -31 74 0 32 -6 42 -40 70 -63 50
-53 90 34 140 67 37 86 63 86 118 0 53 14 91 47 125 24 25 25 32 20 84 -5 47
-3 60 11 70 16 12 15 15 -9 41 -14 15 -35 58 -48 95 -19 55 -22 84 -20 156 6
129 -16 148 -97 90 -35 -25 -57 -33 -102 -36 -51 -4 -62 -1 -90 23 -64 54 -64
137 1 175 29 17 36 29 47 78 16 74 33 106 70 132 28 20 29 23 16 49 -39 75
-44 241 -10 376 22 90 114 269 188 366 201 265 527 476 873 563 199 51 439 68
623 46z m4556 -236 c53 -35 75 -145 40 -199 -25 -38 -99 -69 -144 -60 -73 14
-131 107 -111 178 11 40 55 84 95 97 35 11 89 4 120 -16z m863 -59 c0 -13 -5
-8 -14 15 -18 46 -17 74 0 35 8 -16 14 -39 14 -50z m39 6 c12 -40 16 -68 7
-59 -10 9 -33 98 -26 98 4 0 13 -17 19 -39z m112 -375 c0 -17 -13 4 -27 42
-22 61 -63 210 -62 224 1 14 89 -249 89 -266z m-8315 234 c18 -11 43 -40 56
-64 20 -38 21 -47 9 -60 -12 -15 -16 -14 -42 11 -23 22 -39 28 -71 28 l-42 0
3 40 c6 68 30 80 87 45z m4754 -278 c1 -47 -3 -71 -9 -67 -5 3 -10 29 -10 56
0 48 -1 49 -27 44 l-28 -5 28 12 c27 12 28 15 22 56 -4 24 -3 62 2 85 7 41 8
40 14 -33 4 -41 7 -108 8 -148z m-4895 132 l85 -36 -16 -41 c-9 -23 -18 -44
-19 -46 -2 -2 -35 10 -73 28 -72 33 -94 33 -112 -1 -15 -28 9 -49 89 -78 34
-12 62 -25 62 -28 0 -18 -25 -82 -32 -82 -7 0 -218 70 -225 75 -1 0 2 18 8 38
7 28 15 37 31 37 17 0 19 3 10 12 -17 17 -15 73 3 108 31 61 71 64 189 14z
m7611 -166 c50 -39 70 -123 42 -178 -13 -26 -71 -70 -92 -70 -7 0 -22 35 -35
78 -28 94 -28 96 -46 81 -18 -15 -18 -49 0 -75 8 -11 18 -37 21 -58 l8 -38
-29 15 c-77 40 -100 130 -56 214 28 51 138 70 187 31z m-2692 -89 c6 -21 3
-28 -13 -32 -23 -6 -24 0 -10 39 12 30 15 30 23 -7z m3589 -18 c2 -17 1 -28
-4 -25 -8 5 -12 54 -4 54 2 0 6 -13 8 -29z m-8613 -59 c39 -21 71 -73 71 -116
0 -39 -35 -111 -63 -129 -88 -57 -207 4 -207 106 0 122 101 192 199 139z
m5621 -32 c0 -5 -8 -10 -17 -10 -15 0 -16 2 -3 10 19 12 20 12 20 0z m-873
-16 c-3 -3 -12 -4 -19 -1 -8 3 -5 6 6 6 11 1 17 -2 13 -5z m641 -26 c8 -8 5
-14 -15 -25 -30 -15 -53 -17 -53 -3 0 6 9 10 20 10 11 0 20 7 20 15 0 18 12
19 28 3z m-598 -112 c0 -34 -3 -65 -6 -69 -10 -10 -34 4 -34 21 0 33 24 120
32 116 4 -3 8 -33 8 -68z m1070 -63 c0 -8 -5 -11 -11 -7 -18 11 -49 87 -48
119 0 26 4 21 29 -34 17 -35 30 -70 30 -78z m1935 95 c67 -52 76 -195 14 -229
-24 -13 -190 -49 -200 -43 -13 7 -19 67 -8 80 8 10 6 20 -10 40 -29 37 -29
106 1 134 52 48 126 12 148 -71 22 -78 19 -74 38 -56 14 15 15 21 4 50 -8 17
-19 51 -27 75 -15 50 -5 55 40 20z m-2837 -26 c2 -7 -7 -12 -22 -12 -27 0 -35
15 -13 23 17 7 30 3 35 -11z m846 -107 c-41 -36 -74 -45 -74 -20 0 16 71 54
99 55 8 0 -3 -16 -25 -35z m-124 11 c0 -2 -34 -37 -76 -77 -42 -41 -98 -102
-125 -135 -57 -72 -89 -93 -63 -41 26 49 224 257 246 257 10 0 18 -2 18 -4z
m408 -58 c-5 -15 -108 -24 -108 -9 0 11 27 18 78 20 23 1 32 -3 30 -11z m-748
-47 c0 -16 -30 -41 -48 -41 -13 1 -10 7 11 25 31 27 37 30 37 16z m685 -67
c-21 -16 -82 -13 -114 6 -11 6 8 9 59 9 69 0 74 -1 55 -15z m1829 -14 c5 -27
9 -30 45 -30 37 0 39 -2 49 -39 10 -43 4 -51 -40 -51 -16 0 -19 -5 -16 -25 4
-20 0 -25 -23 -30 -35 -8 -49 0 -49 26 0 15 -7 19 -34 19 -19 0 -47 -5 -61
-10 -22 -8 -26 -15 -23 -35 4 -20 0 -25 -25 -31 -34 -7 -43 2 -53 59 -10 63
16 90 102 102 65 10 69 12 66 34 -7 47 52 58 62 11z m-3344 -11 c0 -5 -4 -9
-10 -9 -5 0 -10 7 -10 16 0 8 5 12 10 9 6 -3 10 -10 10 -16z m-4621 -96 c-1
-49 2 -90 7 -92 4 -2 17 7 27 21 17 23 18 30 6 61 -11 30 -10 41 1 62 7 14 17
25 21 25 15 0 49 -87 49 -126 0 -109 -101 -173 -205 -130 -65 27 -90 104 -60
182 14 37 25 50 59 65 22 10 54 19 69 19 l28 0 -2 -87z m-942 -20 c-3 -10 -5
-2 -5 17 0 19 2 27 5 18 2 -10 2 -26 0 -35z m9844 -19 l-9 -39 -1 50 c-1 33 2
46 9 39 7 -7 7 -24 1 -50z m-4404 4 c-3 -8 -6 -5 -6 6 -1 11 2 17 5 13 3 -3 4
-12 1 -19z m1000 8 c-13 -34 -182 -278 -198 -287 -24 -13 -24 2 0 32 10 13 53
76 96 139 69 102 91 129 104 130 2 0 1 -6 -2 -14z m3370 -63 c-3 -10 -5 -2 -5
17 0 19 2 27 5 18 2 -10 2 -26 0 -35z m-2817 8 c0 -10 -30 -24 -37 -17 -3 3
-2 9 2 15 8 13 35 15 35 2z m2771 -54 c-13 -13 -15 21 -3 50 6 15 8 13 10 -11
2 -16 -1 -33 -7 -39z m-4322 -5 c0 -24 -1 -25 -9 -7 -12 28 -12 47 0 40 6 -3
10 -18 9 -33z m1371 14 c0 -8 -19 -24 -43 -35 -24 -11 -67 -41 -96 -66 -30
-25 -56 -44 -58 -41 -17 16 72 101 141 136 49 24 56 25 56 6z m-577 -47 c-6
-6 -19 -9 -29 -6 -17 3 -16 5 6 14 28 12 39 8 23 -8z m-73 7 c0 -3 -4 -8 -10
-11 -5 -3 -10 -1 -10 4 0 6 5 11 10 11 6 0 10 -2 10 -4z m860 -41 c0 -16 -38
-40 -48 -30 -4 4 4 15 17 26 28 23 31 23 31 4z m2819 -100 c1 -17 -1 -17 -9
-5 -5 8 -9 35 -9 60 l1 45 9 -40 c4 -22 8 -49 8 -60z m-3763 57 c-9 -9 -37 8
-31 18 5 8 11 7 21 -1 8 -6 12 -14 10 -17z m-5056 -46 c0 -41 -2 -44 -31 -50
-17 -3 -53 -6 -78 -6 -66 0 -90 -29 -55 -64 11 -12 36 -16 92 -16 l77 0 0 -43
0 -42 -84 -5 c-65 -4 -86 -9 -95 -22 -8 -13 -8 -23 0 -35 9 -15 28 -19 98 -21
l86 -3 0 -43 0 -44 -97 -7 c-54 -3 -110 -9 -125 -11 -27 -5 -28 -4 -28 39 0
25 4 47 10 49 6 2 1 21 -11 46 -25 50 -20 106 12 122 20 11 20 11 -1 37 -38
48 -19 132 34 153 11 5 60 9 109 9 l87 1 0 -44z m4740 30 c0 -8 -9 -24 -19
-37 l-20 -24 6 25 c9 39 33 65 33 36z m175 5 c-40 -16 -75 -21 -75 -12 0 9 31
17 75 19 l20 1 -20 -8z m2825 -76 c0 -22 -8 -43 -20 -55 -23 -23 -27 -70 -5
-70 8 0 19 17 25 43 19 69 35 87 80 87 30 0 43 -6 59 -26 28 -35 36 -88 21
-137 -13 -44 -64 -102 -80 -92 -15 9 -11 77 5 99 18 24 20 69 3 64 -8 -3 -40
-78 -48 -114 0 -1 -13 -7 -29 -14 -112 -46 -163 118 -68 218 41 42 57 41 57
-3z m-3127 -2 c-7 -2 -19 -2 -25 0 -7 3 -2 5 12 5 14 0 19 -2 13 -5z m897 -11
c0 -11 -49 -62 -60 -62 -19 0 -10 25 18 47 28 23 42 28 42 15z m-425 -235
c-91 -180 -84 -169 -95 -162 -12 7 9 56 94 214 96 182 98 140 1 -52z m-152
103 c3 -11 1 -20 -4 -20 -5 0 -9 2 -9 4 0 2 -3 11 -6 20 -3 9 -2 16 4 16 5 0
12 -9 15 -20z m697 -89 c0 -5 -10 -11 -22 -15 -34 -9 -38 -7 -32 9 6 16 54 21
54 6z m-405 -31 c-3 -5 -23 -10 -43 -10 -28 0 -33 3 -22 10 20 13 73 13 65 0z
m2608 -58 c24 -25 31 -41 35 -85 5 -65 -14 -109 -61 -137 -62 -38 -152 -13
-184 50 -17 34 -16 105 2 141 39 75 147 91 208 31z m-1967 -69 c-15 -26 -36
-59 -47 -73 -15 -19 -14 -12 7 30 33 67 55 102 61 96 3 -3 -7 -26 -21 -53z
m-336 43 c0 -3 -4 -8 -10 -11 -5 -3 -10 -1 -10 4 0 6 5 11 10 11 6 0 10 -2 10
-4z m-345 -15 c-15 -15 -85 -25 -85 -13 0 9 16 13 80 20 9 1 10 -1 5 -7z m125
-6 c0 -9 -9 -15 -25 -15 -16 0 -25 6 -25 15 0 9 9 15 25 15 16 0 25 -6 25 -15z
m390 -4 c0 -14 -68 -38 -130 -46 -73 -10 -58 3 37 31 90 27 93 27 93 15z m35
-160 c-48 -83 -91 -153 -96 -156 -14 -10 10 41 79 160 81 140 93 158 99 152 2
-3 -34 -73 -82 -156z m-845 135 c0 -8 -4 -18 -10 -21 -5 -3 -10 3 -10 14 0 12
5 21 10 21 6 0 10 -6 10 -14z m-5880 -49 c0 -5 -4 -5 -10 -2 -5 3 -10 14 -10
23 0 15 2 15 10 2 5 -8 10 -19 10 -23z m977 3 c41 -24 62 -66 64 -123 4 -85
-37 -136 -116 -144 -111 -13 -185 101 -136 211 14 33 29 51 53 61 46 20 97 18
135 -5z m5243 -10 c0 -6 -37 -10 -91 -10 -57 0 -88 4 -84 10 3 6 44 10 91 10
49 0 84 -4 84 -10z m27 -46 c-3 -3 -12 -4 -19 -1 -8 3 -5 6 6 6 11 1 17 -2 13
-5z m-357 -90 c-12 -27 -49 -93 -82 -147 -33 -53 -69 -127 -80 -162 -22 -76
-38 -86 -27 -17 9 58 39 121 103 220 26 40 59 98 73 130 32 69 43 47 13 -24z
m191 71 c61 -10 46 -25 -26 -25 -37 0 -65 4 -65 10 0 6 -10 8 -24 4 -13 -3
-26 -2 -29 3 -7 11 94 16 144 8z m-26 -75 c7 -12 -39 -24 -60 -16 -8 3 -15 10
-15 16 0 13 67 13 75 0z m2646 -32 c66 -19 109 -36 109 -44 0 -27 -20 -64 -35
-64 -12 0 -14 -4 -5 -19 23 -44 8 -96 -36 -119 -18 -10 -21 -18 -16 -61 4 -46
2 -53 -26 -81 -17 -16 -41 -30 -54 -30 -18 0 -174 46 -185 54 -3 2 17 79 21
84 2 1 29 -7 61 -18 93 -32 123 -25 111 25 -5 20 -19 28 -77 46 -53 16 -69 25
-65 36 4 8 9 26 12 39 7 29 1 29 91 3 79 -22 103 -17 103 21 0 25 -16 35 -90
60 -36 12 -67 23 -68 25 -7 7 20 75 29 75 6 0 59 -14 120 -32z m-3243 -45 c-1
-44 -2 -45 -5 -10 -2 20 -8 37 -14 37 -5 0 -9 5 -9 10 0 6 7 10 15 10 11 0 15
-11 13 -47z m642 27 c0 -5 -17 -10 -37 -9 -31 0 -34 2 -18 9 28 12 55 12 55 0z
m-50 -69 c0 -9 -90 -21 -100 -14 -2 2 2 8 10 13 19 12 90 13 90 1z m-380 -37
c0 -32 -18 -31 -30 2 -13 33 -13 33 10 27 13 -3 20 -14 20 -29z m-4650 -24 c5
0 25 -13 43 -30 67 -59 72 -163 10 -222 -32 -31 -108 -54 -144 -45 -35 9 -76
43 -95 79 -32 63 -12 172 37 199 27 14 39 2 46 -48 4 -28 1 -42 -11 -52 -42
-35 6 -88 69 -77 34 7 65 37 65 64 0 7 -13 21 -30 30 -27 15 -30 22 -30 66 0
40 3 47 16 42 9 -3 20 -6 24 -6z m4036 -6 c-3 -9 -6 -18 -6 -20 0 -3 -4 -3
-10 1 -11 7 -2 35 12 35 6 0 7 -7 4 -16z m1294 -4 c-21 -14 -120 -43 -126 -37
-7 7 96 46 121 46 17 1 17 -1 5 -9z m-870 -10 c0 -5 -7 -10 -16 -10 -8 0 -12
5 -9 10 3 6 10 10 16 10 5 0 9 -4 9 -10z m-70 -10 c0 -5 -4 -10 -10 -10 -5 0
-10 5 -10 10 0 6 5 10 10 10 6 0 10 -4 10 -10z m780 1 c0 -5 -9 -11 -21 -14
-16 -4 -18 -3 -8 9 13 16 29 19 29 5z m-245 -31 c4 -6 -5 -10 -19 -10 -14 0
-26 5 -26 10 0 6 9 10 19 10 11 0 23 -4 26 -10z m310 -64 c-37 -16 -101 -29
-91 -19 12 13 69 31 96 31 24 0 24 0 -5 -12z m-390 -6 c4 -6 -5 -10 -19 -10
-14 0 -26 5 -26 10 0 6 9 10 19 10 11 0 23 -4 26 -10z m-868 -50 c-6 -16 -13
-27 -15 -25 -7 7 8 55 17 55 5 0 4 -13 -2 -30z m1130 19 c-36 -21 -87 -39 -87
-30 0 9 66 39 90 40 11 0 11 -2 -3 -10z m240 -44 c-4 -8 -11 -15 -17 -15 -7 0
-7 6 0 21 13 23 26 19 17 -6z m-1537 -26 c0 -5 -4 -9 -10 -9 -5 0 -10 7 -10
16 0 8 5 12 10 9 6 -3 10 -10 10 -16z m864 -6 c-16 -67 -63 -130 -187 -248
-128 -122 -177 -189 -177 -241 0 -13 -4 -26 -10 -29 -19 -12 -10 45 17 102 21
45 56 87 159 188 99 98 140 145 164 193 35 68 44 77 34 35z m-314 -39 c0 -14
-4 -22 -10 -19 -5 3 -10 17 -10 31 0 14 4 22 10 19 6 -3 10 -17 10 -31z m950
17 c0 -13 -51 -73 -58 -67 -5 5 45 76 54 76 2 0 4 -4 4 -9z m-770 -17 c0 -11
-5 -14 -16 -10 -9 4 -23 1 -31 -5 -7 -7 -16 -9 -20 -6 -4 5 46 34 65 37 1 0 2
-7 2 -16z m-80 -24 c0 -5 -5 -10 -11 -10 -5 0 -7 5 -4 10 3 6 8 10 11 10 2 0
4 -4 4 -10z m3090 -18 c62 -30 76 -93 39 -169 -24 -50 -61 -73 -116 -73 -66 0
-70 8 -40 90 31 82 32 90 13 90 -21 0 -36 -24 -39 -64 -2 -19 -12 -45 -22 -56
-18 -20 -20 -20 -32 -4 -33 45 -1 152 55 187 35 22 98 21 142 -1z m-3410 -14
c0 -13 -23 -5 -28 10 -2 7 2 10 12 6 9 -3 16 -11 16 -16z m-470 -198 c2 -47 4
-102 4 -123 1 -44 4 -45 115 -49 l74 -3 -7 99 c-3 54 -9 110 -13 124 -4 16 -2
23 4 19 6 -4 13 -32 17 -64 4 -32 11 -85 17 -118 l10 -60 115 -3 114 -3 -5 48
-5 48 17 -47 c15 -43 19 -47 52 -51 l36 -3 -32 -13 c-18 -7 -33 -19 -33 -27 0
-8 -4 -14 -10 -14 -5 0 -10 7 -10 15 0 12 -14 15 -65 15 -55 0 -65 -3 -65 -17
-1 -17 -2 -16 -15 1 -12 15 -24 18 -70 14 -30 -3 -55 -1 -55 4 0 4 -20 8 -46
8 -50 0 -198 32 -173 37 13 3 15 25 13 156 -3 155 9 161 16 7z m560 85 c0 -8
-7 -15 -15 -15 -26 0 -18 20 13 29 1 1 2 -6 2 -14z m967 -2 c-2 -5 -40 -71
-84 -148 -45 -77 -90 -158 -101 -180 -12 -22 -21 -36 -22 -31 0 15 149 297
176 334 22 28 42 45 31 25z m-1467 -44 c0 -17 5 -39 10 -50 7 -12 7 -19 1 -19
-10 0 -15 13 -26 68 -4 20 -3 32 4 32 6 0 11 -14 11 -31z m296 -17 c-11 -10
-15 4 -8 28 l7 25 3 -23 c2 -13 1 -26 -2 -30z m-119 -14 c-3 -7 -5 -2 -5 12 0
14 2 19 5 13 2 -7 2 -19 0 -25z m-2711 -270 c273 -302 476 -527 577 -641 l77
-88 -137 -120 c-137 -119 -138 -120 -155 -99 -45 55 -272 300 -279 300 -3 0
-80 -64 -170 -143 -90 -78 -238 -205 -329 -282 -91 -77 -187 -160 -214 -185
l-48 -45 -51 55 c-27 30 -93 101 -145 158 -82 88 -93 104 -80 115 9 7 110 93
224 193 115 100 276 239 358 310 82 71 151 134 153 141 3 6 -61 86 -140 176
l-145 165 136 116 c76 63 139 115 143 116 3 0 104 -109 225 -242z m3604 233
c0 -15 -16 -22 -35 -15 -13 5 -14 8 -3 15 18 12 38 11 38 0z m-1248 -46 c4
-20 3 -23 -8 -14 -15 12 -20 54 -5 45 5 -3 11 -17 13 -31z m368 19 c0 -8 -4
-12 -10 -9 -5 3 -10 10 -10 16 0 5 5 9 10 9 6 0 10 -7 10 -16z m745 5 c-55
-11 -75 -11 -75 1 0 6 25 9 58 9 56 -1 57 -1 17 -10z m245 -5 c0 -6 -65 -34
-77 -33 -4 0 10 9 32 19 48 22 45 21 45 14z m-156 -64 c-5 -5 -25 -12 -44 -15
l-35 -5 30 14 c35 18 64 21 49 6z m-292 -132 c-9 -9 -15 -9 -24 0 -9 9 -7 12
12 12 19 0 21 -3 12 -12z m488 -7 c0 -5 -7 -14 -15 -21 -16 -14 -18 -10 -9 14
6 17 24 22 24 7z m-80 -138 c-50 -106 -134 -241 -138 -221 -2 10 25 64 59 120
34 57 71 123 82 148 11 25 22 39 24 33 3 -7 -10 -43 -27 -80z m-374 52 c-22
-17 -39 -18 -76 -7 -22 6 -19 8 20 13 75 10 77 10 56 -6z m-232 -52 c-9 -50
-31 -103 -43 -103 -5 0 -1 23 10 50 10 28 19 59 19 70 0 11 5 20 10 20 7 0 8
-14 4 -37z m-422 -8 c0 -5 -5 -11 -11 -13 -6 -2 -11 4 -11 13 0 9 5 15 11 13
6 -2 11 -8 11 -13z m88 -5 c0 -5 -9 -10 -20 -10 -11 0 -20 5 -20 10 0 6 9 10
20 10 11 0 20 -4 20 -10z m210 0 c0 -5 -4 -10 -10 -10 -5 0 -10 5 -10 10 0 6
5 10 10 10 6 0 10 -4 10 -10z m520 -20 c0 -20 -85 -45 -116 -33 -11 4 -1 11
33 23 57 20 83 24 83 10z m-765 -107 c22 -33 12 -40 -22 -18 -47 31 -56 43
-35 47 25 6 39 -1 57 -29z m2607 17 c55 -21 173 -103 173 -120 0 -5 -43 -46
-95 -91 -52 -45 -118 -102 -147 -126 l-52 -45 -34 26 c-44 34 -93 34 -158 0
-96 -48 -169 -134 -169 -199 0 -41 50 -85 97 -85 39 1 66 13 328 158 177 98
221 114 333 120 88 4 96 3 157 -27 116 -57 218 -202 231 -327 15 -151 -111
-394 -277 -535 -210 -178 -341 -237 -507 -227 -99 6 -170 39 -249 116 l-54 53
151 125 151 125 35 -30 c64 -56 149 -40 246 48 79 71 108 116 108 168 0 52
-33 93 -75 93 -32 0 -48 -8 -265 -135 -96 -57 -193 -110 -215 -120 -99 -41
-238 -36 -328 12 -71 39 -152 125 -190 203 -30 60 -32 72 -32 166 0 98 1 103
42 185 90 182 377 423 563 473 80 21 169 20 232 -4z m-2292 -18 c0 -7 -27 -34
-122 -122 -24 -21 -38 -29 -38 -19 0 7 32 44 71 81 67 64 89 79 89 60z m-325
-61 c34 -30 35 -41 4 -41 -19 0 -49 35 -49 57 0 19 9 16 45 -16z m-20 -79 c-8
-9 -45 30 -38 41 4 6 14 1 25 -13 10 -12 16 -25 13 -28z m365 23 c0 -8 -4 -15
-10 -15 -5 0 -10 7 -10 15 0 8 5 15 10 15 6 0 10 -7 10 -15z m10 -110 l35 -14
-39 2 c-22 1 -41 8 -44 15 -5 15 3 14 48 -3z m-235 -37 c-15 -47 -77 -129 -89
-117 -6 6 77 139 87 139 5 0 5 -10 2 -22z m146 -18 c10 0 19 -4 19 -10 0 -13
-12 -13 -44 0 -17 6 -26 17 -26 32 l0 22 16 -22 c8 -12 24 -22 35 -22z m239
-35 c-16 -19 -94 -19 -135 0 -28 13 -25 13 59 14 78 1 87 -1 76 -14z m-265 -7
c28 -13 33 -28 9 -28 -23 0 -55 20 -49 31 8 11 9 11 40 -3z m150 -48 c46 -1
56 -3 43 -11 -26 -15 -140 -7 -146 10 -4 10 1 12 19 8 13 -4 51 -7 84 -7z
m-214 -40 c38 -17 40 -20 18 -20 -15 0 -37 9 -50 20 -31 25 -22 25 32 0z
m-1716 -315 c116 -54 213 -101 217 -104 8 -7 -58 -565 -106 -905 -19 -133 -42
-302 -51 -376 -10 -74 -18 -137 -20 -138 -5 -6 -375 160 -381 170 -3 5 2 52
11 104 10 55 14 99 9 104 -5 4 -102 53 -216 108 l-207 100 -68 -75 -68 -76
-125 67 c-178 96 -270 150 -267 157 1 3 128 121 282 261 154 140 390 356 525
480 135 124 247 224 250 223 3 -1 100 -46 215 -100z m3020 -110 c106 -28 165
-63 250 -149 144 -144 219 -338 219 -561 0 -210 -57 -336 -206 -458 -128 -104
-390 -205 -578 -222 -183 -16 -384 71 -496 217 -88 114 -155 286 -176 453 -33
260 97 482 362 620 218 112 442 148 625 100z m-1611 -234 c282 -73 446 -267
446 -529 l0 -74 -42 5 c-24 4 -116 14 -205 23 l-162 17 -6 50 c-4 27 -21 77
-39 111 -27 52 -39 64 -87 89 -75 38 -164 40 -241 5 -98 -45 -127 -118 -149
-373 -11 -125 -10 -146 5 -197 30 -103 119 -167 246 -176 127 -9 226 70 246
196 3 21 9 44 13 50 5 8 60 7 200 -6 l193 -17 -5 -61 c-17 -182 -135 -346
-302 -420 -188 -83 -487 -69 -693 32 -112 55 -201 144 -258 258 -60 122 -79
221 -71 376 20 385 202 606 542 660 90 14 278 4 369 -19z m-3370 -407 c50 -42
52 -58 2 -22 -41 30 -56 48 -40 48 3 0 20 -12 38 -26z m5515 -948 c-32 -30
-93 -76 -101 -76 -16 0 21 39 57 61 26 16 56 27 44 15z m-2199 -446 c0 -5 -4
-10 -9 -10 -6 0 -13 5 -16 10 -3 6 1 10 9 10 9 0 16 -4 16 -10z"/>
<path d="M6507 9779 c7 -7 15 -10 18 -7 3 3 -2 9 -12 12 -14 6 -15 5 -6 -5z"/>
<path d="M6565 9760 c29 -12 124 -12 105 0 -8 5 -40 9 -70 9 -40 0 -49 -3 -35
-9z"/>
<path d="M1545 8589 c-11 -17 1 -21 15 -4 8 9 8 15 2 15 -6 0 -14 -5 -17 -11z"/>
<path d="M175 5797 c-8 -13 -19 -47 -25 -76 -13 -70 -13 -201 0 -201 6 0 10
15 10 34 0 19 9 62 19 97 40 129 37 209 -4 146z m5 -87 c0 -5 -5 -10 -11 -10
-5 0 -7 5 -4 10 3 6 8 10 11 10 2 0 4 -4 4 -10z"/>
<path d="M5645 9066 c-107 -45 -160 -129 -190 -304 -38 -215 -1 -356 112 -431
90 -60 259 -76 362 -35 57 23 115 92 140 167 50 150 65 327 35 426 -34 116
-151 189 -314 198 -74 3 -93 1 -145 -21z"/>
<path d="M6810 7026 c0 -22 17 -28 24 -10 9 22 8 24 -9 24 -8 0 -15 -6 -15
-14z"/>
<path d="M6694 7005 c-16 -12 -16 -14 -3 -15 9 0 22 7 29 15 16 19 0 19 -26 0z"/>
<path d="M6725 6950 c-40 -42 -24 -49 25 -10 45 36 47 40 22 40 -10 0 -31 -13
-47 -30z"/>
<path d="M7136 6894 c-75 -81 -94 -119 -129 -259 -16 -64 -58 -196 -75 -237
-5 -11 148 -168 162 -168 16 0 92 99 120 157 51 102 60 284 20 414 -16 55 -24
99 -21 127 3 23 2 42 -2 41 -3 0 -37 -34 -75 -75z m64 -28 c0 -8 -4 -18 -10
-21 -5 -3 -10 -21 -10 -39 0 -35 -38 -101 -103 -179 l-41 -49 -8 28 c-9 33 40
131 110 219 44 55 62 67 62 41z m13 -221 c-4 -64 -39 -164 -85 -244 -49 -84
-68 -102 -92 -82 -14 12 -12 18 23 56 21 23 45 53 52 66 17 33 59 153 54 157
-2 2 -21 -22 -41 -54 -43 -68 -122 -164 -135 -164 -18 0 -7 29 45 118 72 120
133 194 160 190 18 -3 21 -9 19 -43z"/>
<path d="M6733 6871 c-27 -17 -52 -56 -41 -66 1 -2 25 17 51 41 51 46 46 58
-10 25z"/>
<path d="M7412 6715 c-12 -39 -46 -126 -77 -194 -31 -68 -54 -128 -53 -133 7
-21 49 32 88 112 23 47 51 102 61 122 19 38 24 107 10 143 -7 16 -13 6 -29
-50z"/>
<path d="M7515 6710 c-10 -16 12 -48 107 -159 50 -57 94 -116 100 -130 5 -14
8 -57 5 -94 -6 -66 -5 -69 27 -105 18 -20 39 -55 47 -77 19 -58 24 -59 27 -8
5 82 21 73 29 -15 7 -70 -11 -172 -43 -254 -12 -32 -19 -58 -14 -58 17 0 80
114 91 166 9 42 9 73 0 141 -22 160 -94 294 -260 486 -101 116 -107 122 -116
107z"/>
<path d="M7428 6498 c-101 -203 -117 -274 -74 -331 45 -60 74 -133 90 -224 16
-94 12 -135 -16 -146 -7 -3 -3 -6 9 -6 45 -2 56 44 64 274 9 253 17 348 30
382 23 62 4 183 -29 183 -4 0 -38 -60 -74 -132z m72 -2 c0 -24 -16 -43 -27
-32 -8 8 6 56 17 56 6 0 10 -11 10 -24z m-40 -181 c-11 -61 -20 -123 -20 -140
0 -42 -15 -64 -32 -47 -9 9 -6 38 16 139 15 71 29 139 32 152 3 14 9 20 14 15
6 -6 2 -53 -10 -119z"/>
<path d="M7207 6293 c-4 -3 -7 -11 -7 -17 0 -6 5 -5 12 2 6 6 9 14 7 17 -3 3
-9 2 -12 -2z"/>
<path d="M7556 6213 c-9 -59 -7 -172 4 -193 13 -25 90 -70 118 -70 27 0 29
-16 3 -25 -24 -7 -64 8 -90 36 l-21 23 0 -23 c0 -12 11 -33 25 -47 22 -22 32
-25 83 -22 49 3 57 6 60 24 3 20 -11 35 -117 125 -20 17 -31 36 -31 53 0 31
26 36 35 7 3 -11 37 -48 76 -82 51 -45 73 -59 81 -51 8 8 -2 26 -38 68 -27 31
-77 92 -112 136 -35 43 -65 78 -66 78 -2 0 -6 -17 -10 -37z"/>
<path d="M7782 6060 c0 -14 2 -19 5 -12 2 6 2 18 0 25 -3 6 -5 1 -5 -13z"/>
<path d="M1680 7080 c-25 -25 -26 -46 -2 -59 15 -8 22 -4 36 20 30 50 5 78
-34 39z"/>
<path d="M3880 6876 c-510 -66 -1009 -393 -1175 -771 -32 -72 -53 -164 -66
-286 -11 -102 -6 -204 10 -195 4 3 25 0 46 -5 38 -11 45 -10 270 22 72 11 371
67 595 113 153 31 400 96 795 209 165 47 350 98 410 112 169 41 365 143 365
190 0 7 -17 51 -39 97 -41 89 -144 213 -238 287 -54 43 -167 109 -231 134 -52
21 -58 21 -41 1 10 -13 10 -17 -2 -25 -19 -12 -20 -11 -46 10 -30 25 -29 34 3
28 46 -8 5 18 -56 37 -164 49 -409 66 -600 42z m220 -44 c-1 -36 -1 -36 -14
-13 -7 13 -11 32 -9 42 8 30 23 11 23 -29z m-310 -1 c0 -5 -7 -11 -15 -15 -8
-3 -15 -10 -15 -16 0 -16 30 -12 36 5 8 21 36 19 32 -2 -2 -9 -18 -21 -38 -26
-28 -7 -36 -5 -47 9 -18 24 -17 29 10 42 28 14 37 14 37 3z m238 -76 c23 -7
23 -7 -10 -31 -44 -33 -93 -30 -93 6 0 35 37 44 103 25z m225 -46 c29 -13 62
-65 47 -74 -17 -11 -48 4 -75 36 -35 43 -22 61 28 38z m405 -60 c-3 -46 -6
-54 -23 -54 -30 0 -50 49 -35 85 12 29 37 43 53 30 5 -4 7 -31 5 -61z m-1000
36 c4 -25 -32 -65 -58 -65 -27 0 -26 30 1 64 24 31 53 31 57 1z m-218 11 c0
-2 -16 -13 -35 -25 -42 -24 -48 -45 -9 -31 34 13 39 13 24 -5 -13 -16 -65 -21
-74 -7 -7 12 26 50 54 61 28 11 40 13 40 7z m654 -152 c9 -25 -16 -67 -47 -78
-52 -19 -57 21 -9 77 19 21 48 22 56 1z m-955 -34 c-23 -22 -39 -43 -35 -47 3
-4 24 11 46 32 22 21 43 36 46 32 11 -11 -75 -87 -97 -87 -15 0 -19 5 -15 16
3 9 6 20 6 25 0 14 62 69 78 69 7 0 -6 -18 -29 -40z m1285 34 c20 -8 21 -43 1
-50 -28 -11 -85 6 -85 25 0 10 3 21 7 24 8 9 56 9 77 1z m459 -21 c19 -6 22
-18 8 -28 -5 -3 -22 6 -38 21 -22 20 -23 24 -8 19 11 -4 28 -10 38 -12z
m-1385 -18 c7 -14 12 -40 12 -56 0 -27 -3 -30 -27 -27 -25 3 -28 8 -31 42 -2
21 -1 44 2 52 9 22 32 16 44 -11z m1546 -134 c20 -32 36 -69 35 -82 0 -19 -4
-15 -23 21 -12 25 -32 61 -44 80 -12 19 -22 39 -22 43 0 17 20 -6 54 -62z
m-29 -50 c14 -37 25 -71 25 -76 -1 -17 -30 28 -30 46 0 9 -16 40 -35 69 -41
61 -45 83 -10 50 13 -12 36 -53 50 -89z m-266 -16 c43 -87 63 -154 43 -141 -6
3 -16 23 -22 44 -7 20 -30 70 -51 110 -41 78 -49 103 -25 83 8 -7 33 -50 55
-96z m212 -12 c11 -35 19 -67 16 -70 -6 -5 -87 154 -87 171 0 29 52 -46 71
-101z m-1131 89 c0 -24 -43 -52 -78 -51 l-37 0 48 15 c26 8 47 19 47 24 0 14
-17 12 -53 -6 l-32 -17 19 22 c19 21 86 31 86 13z m-610 -34 c-23 -21 -30 -33
-22 -36 8 -2 27 8 43 24 16 15 29 22 29 15 0 -20 -51 -61 -76 -61 -41 0 -27
52 21 78 37 21 40 12 5 -20z m1274 11 c-26 -29 -70 -50 -88 -43 -43 16 7 63
68 63 l39 1 -19 -21z m324 -68 c23 -46 42 -93 42 -104 0 -31 -12 -13 -63 96
-56 119 -39 125 21 8z m73 12 c25 -58 35 -103 23 -103 -8 0 -45 80 -61 133
-12 38 19 14 38 -30z m-1964 23 c-20 -15 -36 -86 -20 -86 6 0 18 17 26 38 l16
37 -5 -35 c-9 -49 -23 -72 -42 -68 -41 8 -17 128 26 128 16 -1 16 -2 -1 -14z
m1213 -100 c0 -41 -20 -69 -43 -60 -22 8 -23 71 0 96 22 24 43 7 43 -36z m599
-54 c6 -20 6 -32 0 -32 -9 0 -19 20 -34 70 -6 23 -6 24 9 10 9 -9 20 -30 25
-48z m-68 -5 c24 -61 5 -62 -21 -1 -23 53 -24 57 -9 52 7 -2 20 -25 30 -51z
m-1826 34 c3 -5 1 -12 -4 -15 -5 -3 -11 1 -15 9 -6 16 9 21 19 6z m654 -40
c22 -71 -13 -107 -48 -50 -19 30 -20 64 -4 92 12 21 39 -2 52 -42z m821 6 c0
-5 -4 -5 -10 -2 -5 3 -10 14 -10 23 0 15 2 15 10 2 5 -8 10 -19 10 -23z m286
-38 c6 -54 -10 -34 -25 31 -8 38 -8 41 6 28 8 -8 17 -35 19 -59z m-856 13 c44
-22 55 -62 16 -62 -46 0 -76 20 -76 52 0 32 11 34 60 10z m795 -37 c6 -37 5
-39 -9 -21 -9 11 -16 33 -16 50 0 41 17 22 25 -29z m-1636 -45 c6 -35 8 -66 5
-69 -3 -3 -14 5 -24 19 -13 17 -20 41 -20 76 0 93 22 78 39 -26z m215 69 c14
-11 31 -30 37 -41 9 -17 8 -18 -8 -10 -10 6 -27 20 -37 31 -24 27 -46 27 -46
1 0 -15 7 -20 24 -20 24 0 43 -16 33 -26 -8 -8 -67 25 -74 42 -16 43 27 58 71
23z m1286 -61 c0 -15 -4 -28 -9 -28 -10 0 -21 35 -21 70 1 24 1 24 15 6 8 -11
15 -32 15 -48z m55 32 c17 -32 19 -50 7 -50 -10 0 -32 45 -32 65 0 23 8 18 25
-15z m-123 -37 c2 -18 -1 -33 -7 -35 -5 -2 -11 17 -13 42 -4 52 15 45 20 -7z
m-1523 -3 c-6 -16 -13 -30 -15 -30 -2 0 -4 14 -4 30 0 20 5 30 14 30 12 0 13
-6 5 -30z m1455 -12 c3 -13 6 -34 6 -48 l-1 -25 -14 25 c-16 28 -20 70 -6 70
5 0 11 -10 15 -22z m-62 -38 c3 -16 1 -30 -4 -30 -4 0 -8 6 -8 14 0 8 -3 21
-6 30 -3 9 -2 16 4 16 5 0 12 -13 14 -30z m-1478 -27 c-8 -27 -17 -103 -21
-170 -6 -122 -15 -147 -33 -97 -20 52 -4 173 36 273 22 56 35 52 18 -6z m1416
3 c-1 -21 -1 -21 -15 -2 -19 25 -19 37 0 30 8 -4 15 -16 15 -28z m-853 -1 c53
-22 66 -35 52 -51 -18 -22 -65 -16 -99 12 -24 21 -28 29 -19 40 14 18 21 17
66 -1z m606 -75 c3 -11 1 -20 -4 -20 -5 0 -9 9 -9 20 0 11 2 20 4 20 2 0 6 -9
9 -20z m-1143 -121 c0 -71 -4 -108 -10 -104 -11 7 -14 198 -3 208 12 13 13 7
13 -104z m60 -14 c0 -57 -4 -95 -10 -95 -11 0 -14 130 -4 168 11 40 14 24 14
-73z m960 85 c0 -5 -9 -10 -19 -10 -11 0 -23 5 -26 10 -4 6 5 10 19 10 14 0
26 -4 26 -10z m-901 -150 c0 -24 -2 -30 -8 -20 -9 15 -16 108 -11 145 3 23 18
-74 19 -125z m135 -9 c-2 -1 -7 0 -13 4 -6 3 -11 32 -10 63 l1 57 12 -60 c7
-33 11 -62 10 -64z m-72 57 c5 -57 2 -72 -13 -63 -12 8 -12 115 0 115 5 0 11
-24 13 -52z m118 28 c0 -14 4 -36 10 -50 6 -17 6 -26 0 -26 -13 0 -30 43 -30
76 0 13 5 24 10 24 6 0 10 -11 10 -24z m128 -18 c6 -17 9 -34 6 -37 -8 -9 -34
30 -34 51 0 28 14 21 28 -14z m62 -4 c0 -8 -4 -14 -10 -14 -5 0 -10 9 -10 21
0 11 5 17 10 14 6 -3 10 -13 10 -21z m-120 -25 c0 -11 -4 -19 -9 -19 -10 0
-21 24 -21 47 0 13 3 13 15 3 8 -7 15 -21 15 -31z"/>
<path d="M3953 6743 c-7 -2 -13 -9 -13 -15 0 -12 50 -2 65 13 10 10 -30 12
-52 2z"/>
<path d="M4230 6694 c0 -9 32 -33 44 -34 5 0 1 9 -9 20 -18 20 -35 26 -35 14z"/>
<path d="M4621 6686 c-12 -14 -4 -76 10 -76 5 0 9 13 9 29 0 16 3 36 6 45 7
20 -9 21 -25 2z"/>
<path d="M3610 6675 c-19 -22 -7 -41 13 -21 18 19 22 36 8 36 -5 0 -14 -7 -21
-15z"/>
<path d="M4047 6522 c-23 -25 -24 -50 -1 -32 20 17 37 50 26 50 -5 0 -16 -8
-25 -18z"/>
<path d="M4377 6524 c-14 -14 -7 -25 13 -22 12 2 21 8 21 13 0 12 -24 18 -34
9z"/>
<path d="M3466 6493 c-9 -29 1 -63 20 -63 17 0 17 15 0 55 -12 29 -13 29 -20
8z"/>
<path d="M4420 6345 c-17 -20 9 -21 36 0 19 14 19 14 -2 15 -12 0 -27 -7 -34
-15z"/>
<path d="M4097 6238 c-5 -18 3 -48 14 -48 12 0 12 47 0 54 -5 4 -11 0 -14 -6z"/>
<path d="M3455 6180 c-8 -14 13 -70 27 -70 6 0 8 13 4 32 -8 38 -21 54 -31 38z"/>
<path d="M3710 6131 c0 -12 20 -27 47 -35 32 -10 20 17 -13 33 -30 13 -34 14
-34 2z"/>
<path d="M3265 5960 c11 -12 30 -20 49 -20 l31 1 -35 19 c-48 26 -69 26 -45 0z"/>
<path d="M5125 6115 l-30 -13 26 -1 c15 -1 32 6 39 14 15 18 5 18 -35 0z"/>
<path d="M5010 6100 c-9 -6 -10 -10 -3 -10 6 0 15 5 18 10 8 12 4 12 -15 0z"/>
<path d="M5116 6049 c-199 -21 -261 -56 -78 -45 120 8 172 21 172 42 0 8 -3
13 -7 13 -5 -1 -44 -5 -87 -10z"/>
<path d="M4822 6023 c-34 -8 -60 -18 -57 -23 6 -9 113 17 130 32 12 10 4 10
-73 -9z"/>
<path d="M4805 5948 c-64 -38 -77 -42 -150 -45 l-80 -3 70 18 c39 10 90 27
113 38 l44 19 -89 0 c-100 -1 -125 -7 -201 -47 -30 -15 -62 -28 -71 -28 -10 0
-65 -30 -122 -66 -136 -86 -157 -97 -264 -129 -104 -32 -115 -39 -108 -66 9
-35 37 -41 121 -29 104 16 198 51 317 118 l99 56 161 6 c153 6 163 5 235 -19
63 -21 94 -25 195 -26 66 0 126 -4 134 -9 9 -6 21 0 38 16 l25 25 -26 7 c-42
10 -32 39 23 69 27 15 54 34 62 43 11 14 9 19 -11 34 -46 35 -101 44 -172 28
-34 -8 -56 -17 -48 -20 8 -3 35 -13 60 -22 66 -24 78 -32 62 -48 -10 -10 -22
-9 -60 1 -130 38 -228 30 -334 -24 l-72 -37 -135 12 c-159 14 -144 18 -326
-85 -100 -56 -145 -76 -195 -84 -36 -7 -77 -14 -92 -17 -58 -12 -25 15 44 36
84 25 151 58 228 110 124 84 128 85 305 86 152 1 163 2 210 26 28 15 66 42 84
62 30 31 32 36 15 36 -10 0 -51 -19 -89 -42z m252 -119 c23 -8 25 -12 12 -19
-18 -11 -199 -1 -199 11 0 18 144 25 187 8z"/>
<path d="M4268 5855 c-36 -19 -70 -39 -73 -45 -4 -6 25 5 63 24 39 20 73 40
77 46 8 13 9 14 -67 -25z"/>
<path d="M4130 5860 c-13 -8 -13 -10 2 -10 9 0 20 5 23 10 8 13 -5 13 -25 0z"/>
<path d="M3990 5790 c-36 -16 -83 -31 -105 -35 l-40 -6 30 15 c47 23 11 19
-114 -13 -192 -49 -340 -81 -466 -102 -66 -10 -154 -26 -195 -34 -41 -8 -111
-18 -155 -22 -132 -11 -46 -22 101 -13 109 7 245 30 442 75 18 5 23 2 20 -11
-3 -17 -85 -51 -192 -79 -37 -9 -164 -21 -321 -30 -290 -17 -338 -24 -377 -62
-37 -36 -35 -46 5 -24 92 53 179 61 682 64 230 2 287 6 389 24 118 22 166 41
166 67 0 23 -12 26 -42 10 -58 -30 -499 -101 -473 -76 11 10 188 61 300 87 81
18 244 70 294 93 29 13 31 17 15 22 -15 6 -2 15 56 43 89 42 73 47 -20 7z
m-169 -59 c-11 -11 -34 -20 -53 -21 -48 -3 -53 -1 -42 10 8 8 58 22 107 29 4
1 -2 -8 -12 -18z m-161 -41 c21 -13 11 -18 -51 -24 -30 -3 -63 -8 -72 -12 -9
-3 -17 -2 -17 3 0 4 24 16 53 24 64 20 68 21 87 9z"/>
<path d="M6375 5784 c-38 -8 -75 -21 -81 -29 -6 -8 -15 -11 -20 -6 -5 5 -76
-9 -159 -30 -82 -21 -165 -38 -182 -38 -26 -1 -34 -6 -37 -23 -13 -66 -46
-258 -46 -267 0 -16 24 -14 112 10 l78 21 0 37 c0 64 13 141 23 141 6 0 8 -33
5 -85 -3 -63 -1 -85 7 -81 7 2 48 14 92 26 l81 22 6 51 c3 29 9 78 12 110 11
97 26 65 22 -48 -1 -58 -2 -105 -1 -105 1 0 42 9 91 21 l89 20 7 61 c3 34 6
94 6 134 0 85 7 81 -105 58z m55 -35 c0 -11 -4 -18 -10 -14 -5 3 -7 12 -3 20
7 21 13 19 13 -6z m-203 -141 c-3 -8 -6 -5 -6 6 -1 11 2 17 5 13 3 -3 4 -12 1
-19z m139 -65 c-10 -10 -19 5 -10 18 6 11 8 11 12 0 2 -7 1 -15 -2 -18z m-368
-95 c-5 -14 -39 -26 -80 -27 -40 -1 -34 14 10 26 52 15 74 15 70 1z"/>
<path d="M4680 5744 c-108 -16 -124 -20 -116 -33 4 -5 -20 -18 -51 -29 -108
-38 -12 -24 124 17 70 22 144 44 163 49 35 10 35 10 5 10 -16 0 -73 -6 -125
-14z"/>
<path d="M4520 5744 c-56 -19 -101 -37 -97 -40 5 -6 110 26 122 37 10 10 0 11
-25 3z"/>
<path d="M5070 5560 c-83 -34 -105 -40 -173 -40 -64 0 -85 -4 -108 -21 -46
-32 -88 -41 -141 -28 -44 10 -51 9 -92 -15 -25 -14 -60 -26 -79 -26 -45 0 -71
-24 -86 -80 -20 -70 -55 -110 -97 -110 -29 0 -43 9 -86 55 -31 33 -59 55 -72
55 -12 0 -39 -14 -59 -31 -42 -35 -74 -39 -183 -25 -56 8 -71 5 -148 -23 -48
-17 -100 -31 -115 -31 -45 0 -77 -33 -101 -105 -33 -98 -83 -112 -133 -37 -48
73 -146 94 -222 47 -31 -19 -54 -25 -102 -25 -55 0 -63 -3 -81 -27 l-19 -26
-35 21 c-43 27 -89 28 -111 4 -17 -19 -22 -67 -11 -97 7 -17 67 -51 99 -55 32
-4 105 12 99 21 -3 5 7 9 21 9 24 0 26 3 21 25 -4 15 -2 25 4 25 6 0 16 -11
22 -25 11 -25 45 -37 35 -12 -35 85 -37 92 -23 73 9 -10 17 -24 20 -30 3 -8 7
-7 14 2 5 7 15 10 24 7 19 -8 35 12 40 50 l4 30 9 -29 c10 -36 -1 -56 -43 -76
-17 -8 -32 -18 -32 -22 0 -13 41 -9 77 8 l34 17 -6 56 c-6 53 -5 55 10 36 11
-14 14 -30 10 -54 -11 -60 -24 -80 -64 -100 -22 -12 -56 -32 -76 -45 -28 -19
-54 -26 -125 -32 -50 -3 -90 -11 -90 -16 0 -7 35 -8 98 -4 89 6 95 5 72 -8
-14 -9 -50 -15 -82 -16 -31 0 -60 -4 -63 -10 -4 -6 6 -10 22 -10 22 0 25 -2
13 -10 -21 -14 18 -13 75 1 55 14 81 6 40 -11 -16 -7 -61 -14 -100 -14 -84 -1
-95 -21 -26 -44 41 -14 51 -13 130 6 65 16 128 22 256 26 152 3 177 6 240 30
39 14 79 26 90 26 11 0 51 14 90 30 38 17 86 30 107 30 64 0 141 21 203 55 56
30 65 32 135 28 82 -4 122 9 129 42 5 30 21 35 81 29 67 -7 260 26 328 56 49
22 101 74 102 101 0 13 8 16 43 12 68 -8 192 25 300 79 54 27 97 52 95 56 -29
58 -70 94 -83 72 -10 -16 -97 -50 -194 -75 -65 -17 -162 -55 -269 -105 -92
-43 -210 -91 -262 -107 -84 -25 -111 -28 -237 -29 -118 0 -145 -3 -160 -17
-69 -62 -243 -86 -343 -48 -67 26 -78 26 -104 3 -12 -10 -42 -27 -69 -36 -26
-10 -54 -27 -62 -39 -8 -11 -17 -18 -21 -15 -7 8 44 78 57 78 5 0 9 18 9 40 0
22 5 40 10 40 6 0 10 -12 10 -26 0 -14 4 -23 10 -19 6 3 7 17 4 31 -4 14 -2
24 5 24 6 0 11 -9 11 -21 0 -16 4 -19 23 -14 29 9 46 26 18 18 -18 -5 -21 -1
-21 23 0 21 3 25 9 15 13 -20 36 -22 70 -5 26 13 29 19 24 49 -7 43 4 46 19 4
6 -18 14 -27 20 -21 5 5 5 20 -2 38 l-10 29 31 -35 30 -35 -7 29 c-5 22 -4 28
7 24 8 -3 16 -13 17 -24 2 -10 9 -23 14 -29 11 -11 6 32 -8 70 -7 18 -6 18 9
6 9 -7 17 -22 17 -32 0 -10 5 -21 10 -24 6 -4 10 6 10 22 l1 28 14 -34 c8 -18
15 -36 15 -40 0 -4 -26 -15 -57 -24 -63 -19 -90 -33 -82 -41 3 -3 34 4 69 15
36 11 76 18 90 17 l25 -4 -25 -11 c-14 -7 -54 -18 -90 -26 l-65 -15 82 -1 c89
-1 118 7 177 47 39 26 42 27 195 27 l156 0 62 35 c34 19 60 36 58 38 -2 2 -25
-3 -52 -11 -68 -21 -115 -29 -108 -17 3 6 14 10 23 10 9 1 28 7 42 15 24 14
24 14 -15 8 l-40 -6 27 22 c14 11 32 21 40 21 7 0 33 9 57 20 32 15 41 23 34
33 -6 6 -13 26 -17 42 -6 28 -5 29 9 11 8 -11 15 -26 15 -33 0 -7 7 -13 15
-13 18 0 19 13 4 43 -8 17 -5 16 15 -6 21 -22 27 -25 32 -13 3 8 1 23 -5 35
-15 28 -14 36 4 21 8 -7 15 -19 15 -26 0 -8 7 -14 15 -14 18 0 18 5 5 30 -7
13 -7 21 0 25 5 3 15 -6 22 -20 10 -22 13 -23 20 -10 5 8 6 21 3 28 -4 6 5 -1
19 -16 29 -31 34 -52 12 -44 -9 4 -13 1 -10 -6 2 -7 -22 -38 -55 -70 -33 -31
-58 -57 -56 -57 19 0 145 57 210 94 44 26 105 54 135 62 220 62 265 82 296
129 13 20 14 29 5 38 -8 8 -11 7 -11 -3 -1 -8 -8 -2 -16 13 -9 16 -13 35 -10
43 7 19 4 18 -104 -26z m88 -12 c18 -18 16 -62 -3 -54 -10 4 -15 -1 -15 -14 0
-11 -4 -20 -10 -20 -5 0 -10 6 -10 13 0 6 -3 23 -7 37 -6 23 -5 24 12 10 17
-14 18 -13 13 13 -6 29 1 34 20 15z m-68 -53 c7 -9 10 -18 7 -22 -8 -7 -37 15
-37 28 0 14 16 11 30 -6z m-30 -42 c0 -18 -10 -16 -26 5 -22 28 -18 48 6 27
11 -10 20 -24 20 -32z m-110 -31 c0 -23 -17 -4 -23 25 -5 26 -4 26 9 8 8 -10
14 -25 14 -33z m37 22 c-9 -9 -28 6 -21 18 4 6 10 6 17 -1 6 -6 8 -13 4 -17z
m113 6 c0 -5 -4 -10 -10 -10 -5 0 -10 5 -10 10 0 6 5 10 10 10 6 0 10 -4 10
-10z m-284 -25 c9 -37 0 -40 -13 -5 -6 17 -7 30 -2 30 5 0 11 -11 15 -25z m47
3 c4 -12 4 -24 1 -27 -6 -7 -24 20 -24 37 0 21 17 13 23 -10z m50 -8 c3 -11 1
-18 -4 -14 -5 3 -9 12 -9 20 0 20 7 17 13 -6z m-133 -28 c0 -7 -4 -10 -10 -7
-5 3 -10 16 -10 28 0 18 2 19 10 7 5 -8 10 -21 10 -28z m-30 -17 c0 -17 -2
-17 -10 -5 -5 8 -10 24 -10 35 0 17 2 17 10 5 5 -8 10 -24 10 -35z m-24 3 c10
-32 -3 -32 -20 1 -14 26 -14 30 -1 25 8 -3 17 -15 21 -26z m504 -14 c0 -8 -4
-14 -10 -14 -5 0 -10 9 -10 21 0 11 5 17 10 14 6 -3 10 -13 10 -21z m-760 -53
c-1 -13 -4 -12 -15 3 -8 11 -15 27 -15 35 1 13 4 12 15 -3 8 -11 15 -27 15
-35z m-40 -26 c0 -5 -5 -3 -10 5 -5 8 -10 20 -10 25 0 6 5 3 10 -5 5 -8 10
-19 10 -25z m600 -6 c0 -17 -4 -28 -10 -24 -5 3 -10 17 -10 31 0 13 5 24 10
24 6 0 10 -14 10 -31z m-30 -26 c0 -13 -3 -13 -15 -3 -8 7 -15 19 -15 27 0 13
3 13 15 3 8 -7 15 -19 15 -27z m-100 -14 c0 -5 -7 -9 -15 -9 -9 0 -12 6 -9 15
6 15 24 11 24 -6z m54 5 c20 -8 21 -24 2 -24 -8 0 -16 7 -20 15 -6 17 -4 18
18 9z m-760 -76 c-3 -5 -15 4 -25 21 -26 43 -24 49 6 17 14 -15 23 -32 19 -38z
m-244 11 c0 -11 5 -30 11 -42 10 -21 9 -21 -10 2 -21 23 -30 78 -11 66 6 -3
10 -15 10 -26z m140 9 c0 -19 -2 -20 -10 -8 -13 19 -13 30 0 30 6 0 10 -10 10
-22z m53 -21 c-8 -13 -23 3 -23 26 0 20 0 20 14 2 8 -11 12 -23 9 -28z m-153
5 c0 -15 -2 -15 -10 -2 -13 20 -13 33 0 25 6 -3 10 -14 10 -23z m30 7 c0 -5
-4 -9 -10 -9 -5 0 -10 7 -10 16 0 8 5 12 10 9 6 -3 10 -10 10 -16z m230 -10
c0 -5 -4 -9 -10 -9 -5 0 -10 7 -10 16 0 8 5 12 10 9 6 -3 10 -10 10 -16z m540
1 c0 -11 -4 -20 -10 -20 -5 0 -10 9 -10 20 0 11 5 20 10 20 6 0 10 -9 10 -20z
m-1106 -6 c8 -21 8 -24 -3 -24 -5 0 -11 9 -14 20 -6 24 8 27 17 4z m1076 -2
c0 -10 -22 -32 -32 -32 -5 0 -3 9 4 20 13 20 28 27 28 12z m-1100 -32 c0 -5
-2 -10 -4 -10 -3 0 -8 5 -11 10 -3 6 -1 10 4 10 6 0 11 -4 11 -10z m-335 -70
c7 -59 -12 -41 -21 20 -5 32 -3 42 4 35 6 -6 14 -30 17 -55z m915 0 c0 -5 -4
-10 -10 -10 -5 0 -10 5 -10 10 0 6 5 10 10 10 6 0 10 -4 10 -10z m-1367 -42
c6 -42 -9 -52 -19 -13 -6 23 2 63 10 54 2 -2 6 -21 9 -41z m50 -13 c9 -25 12
-45 8 -45 -7 0 -31 59 -31 78 0 23 8 11 23 -33z m365 -5 c-2 -5 -9 -6 -16 -1
-7 4 -10 15 -6 25 6 17 8 17 16 2 5 -9 8 -21 6 -26z m932 20 c0 -5 -4 -10 -10
-10 -5 0 -10 5 -10 10 0 6 5 10 10 10 6 0 10 -4 10 -10z m-1200 -30 c0 -5 -4
-10 -10 -10 -5 0 -10 5 -10 10 0 6 5 10 10 10 6 0 10 -4 10 -10z m420 -9 c15
-30 -5 -35 -24 -6 -14 21 -14 25 -2 25 9 0 20 -9 26 -19z m-85 -41 c17 -33 18
-40 7 -40 -9 0 -32 44 -32 60 0 18 9 10 25 -20z m53 -9 c4 -28 -13 -20 -21 9
-3 14 -1 20 6 17 7 -2 14 -14 15 -26z m326 8 c-3 -5 -10 -7 -15 -3 -5 3 -7 10
-3 15 3 5 10 7 15 3 5 -3 7 -10 3 -15z m-144 3 c0 -16 -66 -72 -110 -91 -54
-25 -110 -27 -151 -5 -16 8 -38 13 -47 10 -19 -6 -49 8 -35 17 5 3 40 2 78 -3
87 -11 136 0 195 45 44 33 70 43 70 27z m-130 -12 c0 -5 -2 -10 -4 -10 -3 0
-8 5 -11 10 -3 6 -1 10 4 10 6 0 11 -4 11 -10z m-210 -9 c0 -10 -45 -41 -60
-41 -5 0 -10 9 -10 21 0 15 4 19 19 14 11 -3 22 -1 26 5 8 12 25 13 25 1z
m390 -26 c-21 -26 -31 -16 -13 11 9 15 19 21 21 15 2 -6 -2 -18 -8 -26z m130
-1 c0 -14 -4 -22 -10 -19 -5 3 -10 17 -10 31 0 14 4 22 10 19 6 -3 10 -17 10
-31z m-131 -24 c14 -1 14 -2 1 -9 -23 -13 -110 -22 -110 -11 0 17 34 30 64 25
16 -3 36 -5 45 -5z"/>
<path d="M3875 5557 c-4 -10 -5 -21 -1 -24 10 -10 18 4 13 24 -4 17 -4 17 -12
0z"/>
<path d="M3993 5533 c-18 -2 -33 -8 -33 -13 0 -5 16 -6 37 -3 24 4 34 3 30 -4
-10 -16 -166 -55 -193 -49 -14 4 -80 9 -149 12 -95 4 -130 2 -151 -9 -25 -13
-22 -14 57 -20 46 -4 117 -12 156 -19 68 -11 79 -10 180 15 113 29 145 44 163
77 10 18 8 20 -27 18 -21 0 -53 -3 -70 -5z"/>
<path d="M3185 5469 c-22 -4 -60 -9 -85 -9 l-45 -2 35 -8 c20 -5 52 -5 75 1
22 5 74 13 115 18 l75 8 -65 1 c-36 0 -83 -4 -105 -9z"/>
<path d="M2786 5450 c-102 -18 -206 -64 -206 -91 0 -15 22 -10 80 17 40 19 89
30 178 40 136 16 196 32 126 33 -23 1 -61 3 -85 5 -24 3 -66 1 -93 -4z"/>
<path d="M3190 5430 c-14 -4 -42 -8 -64 -9 -21 -1 -64 -7 -95 -15 -31 -8 -111
-19 -178 -24 -99 -8 -129 -14 -155 -32 l-33 -21 30 5 c75 13 346 58 400 67 60
9 163 37 135 37 -8 0 -26 -4 -40 -8z"/>
<path d="M3025 5360 c-22 -4 -65 -14 -96 -23 -31 -8 -101 -20 -155 -26 -181
-21 -245 -31 -265 -41 -34 -19 -20 -27 39 -23 52 3 91 9 307 43 83 13 163 35
219 61 33 15 36 18 16 18 -14 -1 -43 -5 -65 -9z"/>
<path d="M3174 5360 c-12 -5 -25 -13 -28 -19 -4 -5 -32 -17 -63 -26 -43 -13
-53 -19 -44 -28 34 -34 214 12 240 62 11 20 9 21 -36 20 -26 0 -58 -4 -69 -9z"/>
<path d="M4544 5269 c-21 -23 -23 -29 -9 -21 25 13 62 52 48 52 -5 0 -22 -14
-39 -31z"/>
<path d="M5318 5244 c-5 -4 -8 -16 -8 -26 0 -15 -8 -18 -52 -18 -29 0 -60 -5
-68 -11 -11 -8 2 -9 49 -5 54 5 62 4 52 -8 -7 -8 -38 -18 -69 -21 -31 -4 -89
-16 -129 -26 -92 -25 -152 -26 -187 -4 -29 19 -50 10 -61 -26 -4 -11 -30 -31
-58 -45 -60 -31 -261 -84 -321 -85 -22 0 -35 -3 -28 -6 6 -2 12 -9 12 -15 0
-7 -18 -9 -49 -5 -34 4 -54 2 -67 -8 -17 -13 -11 -14 52 -15 54 0 75 -4 85
-17 13 -15 4 -16 -121 -10 l-135 6 120 -19 c66 -11 125 -20 130 -20 6 0 3 -5
-6 -10 -10 -6 -48 -5 -102 3 -48 7 -87 10 -87 6 0 -9 38 -19 77 -19 46 0 66
-9 53 -25 -17 -21 65 -27 254 -19 155 6 201 13 216 34 3 4 25 18 50 30 25 13
58 33 73 46 42 35 67 38 142 15 100 -31 168 -26 132 11 -39 39 -23 67 26 49
70 -27 287 -36 287 -13 0 25 -73 112 -120 144 -74 49 -91 51 -102 12 -4 -17
-15 -37 -23 -44 -26 -21 -17 -30 33 -30 47 0 112 -29 112 -50 0 -5 -1 -10 -2
-10 -2 0 -39 8 -83 17 -44 8 -98 16 -120 17 -52 1 -256 -31 -320 -50 -27 -8
-79 -19 -115 -24 -36 -5 -78 -13 -94 -16 -19 -5 -27 -3 -23 3 4 6 19 13 34 16
62 12 200 46 223 55 18 8 3 9 -60 6 -113 -6 -73 14 55 27 111 11 256 58 270
89 6 12 18 19 30 18 14 -2 25 7 38 34 18 36 21 78 5 62z m-113 -125 c-138 -45
-345 -74 -345 -49 0 6 4 10 8 10 14 0 224 30 272 39 25 5 56 9 70 9 23 0 23
-1 -5 -9z m-466 -153 c-9 -8 -10 -7 -5 7 3 10 7 24 7 30 1 7 3 4 6 -7 3 -10
-1 -23 -8 -30z m462 -7 c27 -19 38 -39 22 -39 -5 0 -24 14 -43 30 -40 33 -23
41 21 9z m-652 -36 c-1 -17 -3 -21 -6 -10 -2 9 -9 17 -14 17 -6 0 -7 5 -4 10
12 19 25 10 24 -17z m396 7 c-38 -10 -87 -25 -107 -34 -41 -17 -115 -21 -137
-7 -10 7 0 11 35 16 27 4 78 15 114 25 36 10 88 19 115 19 l50 0 -70 -19z
m-265 0 c0 -5 -4 -10 -9 -10 -6 0 -13 5 -16 10 -3 6 1 10 9 10 9 0 16 -4 16
-10z m98 -63 c142 1 140 -19 -3 -25 -106 -5 -140 1 -149 24 -5 12 -1 14 17 8
12 -5 73 -8 135 -7z"/>
<path d="M5463 5213 c-35 -2 -63 -8 -63 -13 0 -9 127 -24 170 -20 37 3 50 1
50 -9 0 -16 -83 -30 -122 -22 -48 11 -48 1 -2 -24 20 -10 55 -41 79 -67 24
-26 49 -48 56 -48 20 0 119 -52 119 -62 0 -11 -26 -10 -71 3 -35 11 -40 10
-58 -12 -19 -23 -24 -24 -127 -21 -94 3 -106 1 -95 -11 6 -8 25 -21 42 -27 27
-12 29 -14 15 -29 -14 -14 -20 -12 -61 17 -52 36 -55 37 -55 18 0 -8 -8 -22
-17 -32 -16 -16 -15 -18 20 -46 34 -28 49 -58 28 -58 -4 0 -29 19 -55 41 -52
46 -140 79 -211 79 -46 0 -60 -10 -71 -54 -7 -29 -7 -29 27 -22 51 12 172 23
186 18 26 -9 2 -19 -52 -21 -110 -4 -102 -16 30 -40 119 -22 129 -23 161 -8
18 9 45 34 58 56 14 22 30 42 35 46 6 3 29 -8 52 -25 49 -35 64 -37 78 -12 7
14 6 25 -5 41 -14 19 -14 22 1 27 8 4 29 1 45 -6 26 -11 33 -10 48 3 9 8 28
17 41 19 67 9 32 97 -57 142 -81 41 -86 58 -37 130 l23 35 -30 10 c-30 11 -45
11 -175 4z"/>
<path d="M2624 5204 c-7 -3 -41 -8 -75 -12 -59 -7 -62 -9 -41 -21 30 -16 94
-6 124 20 22 17 17 23 -8 13z"/>
<path d="M5035 5139 c-5 -7 5 -8 32 -3 51 9 54 14 10 14 -20 0 -39 -5 -42 -11z"/>
<path d="M5955 5080 c-16 -4 -51 -8 -76 -9 l-47 -1 -11 -87 c-7 -49 -14 -100
-16 -115 -4 -25 -2 -27 23 -22 15 3 61 10 102 17 l75 12 3 108 c3 115 5 112
-53 97z m-67 -147 c-2 -12 6 -19 27 -23 l30 -6 -30 -6 c-16 -3 -33 -4 -37 -1
-12 7 -9 53 2 53 6 0 10 -8 8 -17z"/>
<path d="M5766 5061 l-28 -6 31 -28 31 -27 0 35 c0 19 -1 34 -2 34 -2 -1 -16
-4 -32 -8z"/>
<path d="M2895 4921 c8 -15 71 -30 95 -24 31 8 24 20 -12 19 -18 -1 -46 3 -61
7 -19 5 -26 4 -22 -2z"/>
<path d="M4115 4895 c-17 -13 -25 -24 -20 -24 14 -1 61 37 54 43 -2 3 -18 -6
-34 -19z"/>
<path d="M4176 4865 c-4 -19 -12 -37 -18 -41 -30 -19 -288 -56 -325 -47 -48
11 -19 21 80 25 56 3 113 10 127 16 18 7 -10 8 -95 4 -92 -3 -135 -10 -183
-28 -144 -54 -365 -93 -507 -90 -71 1 -122 -4 -173 -17 l-74 -19 -64 23 c-35
12 -66 21 -68 18 -2 -2 0 -27 5 -54 15 -83 88 -133 153 -105 48 20 103 23 152
10 56 -16 48 -25 -23 -25 -59 0 -82 -16 -70 -49 11 -27 65 -19 208 33 150 54
208 64 389 65 117 1 132 4 234 39 193 67 226 90 255 183 23 74 26 94 12 94 -5
0 -12 -16 -15 -35z m-21 -75 c-3 -5 -13 -10 -22 -10 -8 0 -47 -10 -86 -21 -79
-24 -115 -45 -57 -35 30 6 32 5 15 -5 -40 -25 -181 -47 -196 -32 -7 7 13 12
53 17 75 7 94 21 47 33 -30 8 -25 10 56 22 50 7 108 19 130 26 49 17 68 18 60
5z m-40 -60 c-3 -5 -13 -10 -21 -10 -8 0 -14 5 -14 10 0 6 9 10 21 10 11 0 17
-4 14 -10z m-443 -36 c-9 -16 -10 -14 -9 8 1 15 6 23 11 18 4 -4 4 -16 -2 -26z
m353 -4 c-9 -14 -74 -30 -120 -29 -35 1 -31 3 35 19 92 22 93 22 85 10z m-791
-12 c-5 -8 7 -10 45 -5 30 4 49 2 46 -3 -3 -5 -27 -12 -53 -15 -26 -3 -56 -10
-67 -15 -25 -12 44 -4 135 15 90 18 176 29 168 20 -9 -9 -227 -50 -344 -64
-49 -6 -104 -15 -123 -21 -19 -5 -37 -8 -39 -5 -9 9 64 34 119 41 30 4 47 10
39 12 -9 3 -2 10 20 18 48 17 14 17 -85 -1 -92 -17 -125 -18 -125 -6 0 4 28
12 63 16 34 4 85 11 112 15 80 12 97 11 89 -2z m336 -29 c-25 -5 -69 -12 -98
-15 -69 -9 -79 -26 -10 -19 29 3 67 2 83 -3 24 -7 13 -10 -65 -15 -52 -4 -113
-3 -135 1 l-40 8 50 17 c63 21 145 35 210 35 l50 -1 -45 -8z m-290 -59 c-8 -5
-22 -10 -30 -10 -13 0 -13 1 0 10 8 5 22 10 30 10 13 0 13 -1 0 -10z"/>
<path d="M4040 4860 c-18 -12 -2 -12 25 0 13 6 15 9 5 9 -8 0 -22 -4 -30 -9z"/>
<path d="M4115 4850 c-16 -11 -25 -20 -18 -20 19 0 63 22 63 32 0 13 -13 10
-45 -12z"/>
<path d="M5930 4834 c-36 -7 -81 -12 -101 -13 l-36 -1 -6 -61 c-6 -65 -10 -75
-26 -64 -8 4 -8 12 -1 25 5 10 10 35 10 54 l0 36 -55 0 c-39 0 -55 -4 -55 -13
0 -20 -31 -45 -60 -49 -23 -3 -25 -7 -26 -59 0 -44 -7 -68 -32 -112 -38 -67
-38 -67 -13 -67 40 0 51 11 51 50 0 22 5 42 10 45 6 4 10 -12 10 -39 0 -52 -2
-51 86 -35 96 17 94 15 94 64 0 57 18 68 22 13 l3 -43 55 2 c30 2 75 9 100 16
l45 13 3 119 c1 65 -1 121 -5 125 -4 3 -37 0 -73 -6z m42 -184 c10 0 18 -4 18
-10 0 -5 -6 -10 -14 -10 -8 0 -23 -3 -33 -6 -15 -5 -16 -4 -3 6 11 9 12 13 3
17 -7 2 -13 10 -13 16 0 8 4 7 12 -1 7 -7 20 -12 30 -12z m-312 -20 c0 -5 -7
-10 -16 -10 -8 0 -12 5 -9 10 3 6 10 10 16 10 5 0 9 -4 9 -10z m170 -46 c0 -8
-5 -12 -10 -9 -6 4 -8 11 -5 16 9 14 15 11 15 -7z m-90 -8 c0 -2 -7 -6 -15
-10 -8 -3 -15 -1 -15 4 0 6 7 10 15 10 8 0 15 -2 15 -4z m-65 -16 c4 -6 -5
-10 -19 -10 -14 0 -26 5 -26 10 0 6 9 10 19 10 11 0 23 -4 26 -10z"/>
<path d="M4308 4803 c7 -3 16 -2 19 1 4 3 -2 6 -13 5 -11 0 -14 -3 -6 -6z"/>
<path d="M4837 4772 c-33 -12 -45 -20 -37 -28 6 -6 15 -26 20 -45 l9 -34 -24
28 c-14 15 -25 35 -25 43 0 13 -12 14 -82 9 -81 -7 -116 -19 -87 -29 8 -3 36
-13 63 -22 51 -17 116 -54 116 -66 0 -16 -33 -6 -134 41 -58 27 -118 52 -135
56 -30 6 -30 6 -20 -23 6 -18 22 -35 40 -42 37 -16 38 -35 2 -25 -38 9 -51 21
-58 54 -5 24 -12 29 -58 37 -64 12 -87 8 -87 -15 0 -22 89 -107 127 -122 15
-6 73 -10 128 -9 55 0 197 -2 315 -6 185 -6 223 -5 272 10 59 17 128 72 128
101 0 15 -63 37 -160 55 -30 6 -64 13 -75 16 -12 3 0 -12 28 -37 41 -36 77
-84 77 -104 0 -18 -28 3 -81 60 -62 66 -145 116 -191 114 -13 0 -45 -8 -71
-17z m171 -50 c3 -22 -30 -96 -49 -107 -20 -13 -19 2 1 46 11 24 20 55 20 67
0 29 24 24 28 -6z"/>
<path d="M4266 4725 c-6 -25 15 -180 33 -242 5 -17 7 -34 3 -37 -3 -3 -2 -6 2
-6 5 0 17 12 29 26 11 15 42 36 68 49 l48 22 -32 31 c-40 39 -56 40 -87 7 -48
-51 -55 -23 -8 30 l31 36 -26 25 c-15 14 -27 33 -27 43 0 10 -6 24 -14 30 -11
9 -15 6 -20 -14z"/>
<path d="M4179 4680 c-23 -27 -48 -50 -54 -50 -16 0 -25 -23 -25 -61 0 -16 -4
-29 -10 -29 -5 0 -10 19 -10 41 l0 41 -33 -6 c-19 -3 -77 -20 -129 -36 l-96
-30 19 -50 c24 -63 5 -67 -22 -5 -18 40 -23 45 -52 45 -84 -2 -136 -25 -224
-100 -10 -8 -13 -7 -13 3 0 8 20 33 45 56 l45 41 -68 -1 c-92 -1 -192 -43
-192 -81 0 -22 -16 -24 -24 -3 -15 39 -96 -2 -131 -66 -33 -62 -65 -154 -65
-191 0 -15 -4 -28 -10 -28 -16 0 -12 52 9 116 11 32 18 60 17 62 -10 9 -89
-126 -93 -160 -3 -21 -10 -38 -14 -38 -16 0 -9 65 10 103 10 20 15 37 11 37
-10 0 -129 -68 -151 -87 -14 -12 -17 -11 -23 2 -9 25 -7 35 6 35 17 0 188 89
226 118 18 14 38 34 43 45 10 18 8 19 -39 12 -48 -6 -51 -5 -73 24 -13 17 -31
31 -41 31 -44 0 -147 -143 -178 -247 -7 -24 -17 -43 -22 -43 -14 0 -9 47 12
100 11 27 18 50 15 50 -12 0 -65 -109 -65 -135 0 -16 -4 -36 -9 -44 -12 -18
-3 -41 15 -41 7 0 18 9 24 19 12 24 73 45 105 37 14 -4 46 -20 72 -36 50 -32
89 -38 115 -17 8 6 39 41 68 77 29 36 73 81 99 100 25 20 59 54 76 77 16 23
35 42 42 42 7 1 49 -24 93 -54 108 -73 153 -72 206 8 24 37 28 39 64 33 21 -3
45 -8 53 -12 19 -7 70 37 118 102 51 69 71 75 117 35 101 -86 143 -113 182
-118 51 -7 71 8 59 45 -5 15 -12 45 -16 66 l-8 39 -29 -43 c-40 -61 -54 -37
-16 31 25 45 30 65 30 122 0 37 -4 67 -9 67 -6 0 -29 -22 -52 -50z m-429 -170
c0 -11 -117 -177 -131 -186 -13 -7 -11 23 2 49 7 12 34 49 61 84 47 59 68 76
68 53z m-410 -112 c0 -10 -4 -18 -9 -18 -12 0 -21 26 -21 58 l1 27 14 -25 c8
-14 14 -33 15 -42z"/>
<path d="M5488 4690 c6 -39 -6 -100 -19 -100 -7 0 -9 17 -4 49 4 27 3 51 -2
54 -21 13 -34 -13 -38 -70 -3 -56 -24 -121 -32 -98 -2 6 1 40 6 75 5 36 7 67
5 69 -2 2 -10 -2 -19 -9 -10 -8 -15 -30 -15 -64 0 -29 -9 -70 -20 -95 -24 -52
-32 -51 -20 4 13 53 12 105 0 105 -5 0 -10 -19 -10 -42 -1 -24 -7 -54 -16 -68
-14 -24 -14 -24 -12 20 2 52 2 52 -87 20 -57 -21 -68 -22 -235 -14 -234 11
-327 9 -422 -11 -115 -23 -165 -49 -197 -102 -39 -66 -111 -76 -214 -29 l-59
26 -96 -21 c-54 -12 -112 -27 -131 -35 -18 -8 -51 -14 -72 -14 -22 0 -39 -4
-39 -10 0 -5 -30 -25 -67 -43 -74 -37 -78 -37 -164 7 -36 18 -37 18 -105 -4
-98 -32 -123 -46 -177 -99 -59 -56 -73 -83 -72 -141 0 -42 3 -46 46 -72 62
-39 143 -51 339 -52 235 0 457 33 808 119 449 112 951 325 1087 462 53 54 94
125 76 131 -6 2 -11 21 -11 43 0 21 -4 39 -8 39 -5 0 -7 -13 -4 -30z m-237
-233 c-18 -48 -28 -29 -15 31 16 73 17 74 21 31 2 -19 -1 -47 -6 -62z m-645
-39 c4 -6 2 -14 -4 -16 -7 -2 -12 -13 -13 -25 l0 -22 -9 21 c-5 12 -14 25 -20
29 -9 6 -9 10 1 16 20 12 37 11 45 -3z m104 -30 c0 -5 -9 -8 -20 -8 -23 0 -26
10 -8 28 9 9 14 9 20 -1 4 -6 8 -15 8 -19z m470 17 c0 -8 -4 -15 -10 -15 -5 0
-10 7 -10 15 0 8 5 15 10 15 6 0 10 -7 10 -15z m-143 -47 c-3 -7 -5 -2 -5 12
0 14 2 19 5 13 2 -7 2 -19 0 -25z m-90 -30 c-3 -8 -6 -5 -6 6 -1 11 2 17 5 13
3 -3 4 -12 1 -19z m-17 -17 c0 -4 -7 -8 -15 -8 -16 0 -20 9 -9 20 8 8 24 -1
24 -12z m-885 -53 c5 -18 3 -28 -4 -28 -15 0 -34 39 -26 57 7 21 21 7 30 -29z
m410 23 c3 -5 1 -12 -5 -16 -5 -3 -10 1 -10 9 0 18 6 21 15 7z m385 -11 c0
-11 -4 -20 -10 -20 -5 0 -10 9 -10 20 0 11 5 20 10 20 6 0 10 -9 10 -20z
m-1380 -22 c0 -5 -4 -8 -10 -8 -5 0 -10 10 -10 23 0 18 2 19 10 7 5 -8 10 -18
10 -22z m-46 -14 c11 -30 6 -37 -14 -19 -11 10 -17 22 -14 26 8 14 21 11 28
-7z m-94 -30 c0 -8 -4 -12 -10 -9 -5 3 -10 13 -10 21 0 8 5 12 10 9 6 -3 10
-13 10 -21z m35 17 c3 -5 1 -12 -4 -15 -5 -3 -11 1 -15 9 -6 16 9 21 19 6z
m135 -11 c0 -5 -7 -10 -15 -10 -8 0 -15 5 -15 10 0 6 7 10 15 10 8 0 15 -4 15
-10z m-230 -73 c0 -12 13 -52 29 -89 34 -79 21 -93 -14 -15 -28 61 -45 144
-27 133 7 -4 12 -17 12 -29z m1200 5 c0 -10 -44 -32 -63 -32 -7 0 2 9 18 20
32 22 45 25 45 12z m-1250 -60 c0 -7 9 -32 20 -54 24 -51 25 -54 3 -37 -21 18
-43 71 -43 106 0 22 2 25 10 13 5 -8 10 -21 10 -28z m890 -13 c0 -27 -17 -23
-22 5 -4 17 -1 23 9 19 7 -3 13 -14 13 -24z m67 -6 c-3 -3 -11 -2 -17 2 -8 5
-7 11 2 22 12 15 13 14 16 -1 2 -10 1 -20 -1 -23z m-787 -78 c-1 -5 -12 3 -25
18 -14 15 -25 38 -25 50 1 18 5 15 25 -18 14 -22 25 -44 25 -50z m520 56 c0
-20 -13 -41 -21 -35 -15 9 -10 44 6 44 8 0 15 -4 15 -9z m-438 -46 c4 -20 3
-23 -8 -14 -15 12 -20 54 -5 45 5 -3 11 -17 13 -31z m75 3 c-3 -8 -6 -5 -6 6
-1 11 2 17 5 13 3 -3 4 -12 1 -19z m289 -5 c-10 -10 -19 5 -10 18 6 11 8 11
12 0 2 -7 1 -15 -2 -18z"/>
<path d="M5523 4685 c0 -22 2 -30 4 -17 2 12 2 30 0 40 -3 9 -5 -1 -4 -23z"/>
<path d="M2821 4567 c-12 -31 -7 -47 14 -47 29 0 24 -20 -15 -65 -44 -51 -47
-70 -6 -37 14 11 59 30 101 43 74 24 95 39 53 39 -39 0 -116 43 -126 70 l-10
25 -11 -28z"/>
<path d="M3995 4480 c-5 -5 -23 -21 -40 -35 l-30 -25 55 16 c66 19 66 19 50
39 -14 17 -21 18 -35 5z"/>
<path d="M2860 4421 c-104 -38 -235 -126 -205 -138 41 -15 60 -32 63 -53 1
-14 5 -36 8 -50 6 -23 7 -22 19 15 25 83 59 136 118 190 65 59 65 61 -3 36z"/>
<path d="M3380 4334 l-25 -15 25 7 c28 7 35 12 29 18 -2 2 -15 -2 -29 -10z"/>
<path d="M8718 6608 c-24 -20 -28 -44 -12 -67 19 -27 54 -27 88 0 45 35 29 79
-29 79 -17 0 -38 -6 -47 -12z"/>
<path d="M8946 6108 c20 -65 24 -71 39 -58 19 16 19 45 -1 64 -24 25 -47 21
-38 -6z"/>
<path d="M1175 5934 c-25 -26 -15 -66 21 -80 40 -17 78 1 82 38 6 47 -67 77
-103 42z"/>
<path d="M8925 5770 c-12 -19 24 -60 51 -60 22 0 24 3 18 23 -3 12 -11 28 -16
35 -13 15 -44 16 -53 2z"/>
<path d="M1086 5424 c-20 -19 -20 -24 0 -52 23 -34 34 -27 34 23 0 48 -9 55
-34 29z"/>
<path d="M8950 4721 c-16 -30 -12 -48 12 -65 45 -32 98 -15 98 30 0 47 -88 74
-110 35z"/>
<path d="M1148 4589 c-50 -19 -45 -80 7 -93 60 -15 110 48 70 88 -18 18 -37
19 -77 5z"/>
<path d="M8791 3898 c-13 -37 -10 -42 18 -33 15 4 21 15 21 36 0 39 -25 38
-39 -3z"/>
<path d="M3290 2039 c-105 -109 -179 -194 -174 -199 14 -13 239 -130 252 -130
6 0 16 26 23 58 23 111 87 457 85 459 -2 2 -85 -83 -186 -188z"/>
<path d="M6273 2115 c-187 -58 -246 -197 -178 -415 72 -229 157 -330 277 -330
136 0 289 84 337 184 78 160 -78 523 -243 565 -58 14 -140 13 -193 -4z"/>
</g>
</svg>
